G75*
%MOIN*%
%OFA0B0*%
%FSLAX25Y25*%
%IPPOS*%
%LPD*%
%AMOC8*
5,1,8,0,0,1.08239X$1,22.5*
%
%ADD10C,0.00600*%
%ADD11R,0.22000X0.03000*%
%ADD12R,0.05000X0.03500*%
%ADD13C,0.00500*%
%ADD14C,0.00800*%
%ADD15C,0.00400*%
D10*
X0459000Y0202679D02*
X0459000Y0242679D01*
X0481000Y0242679D01*
X0481000Y0202679D01*
X0459000Y0202679D01*
X0470000Y0217679D02*
X0470000Y0222679D01*
X0467700Y0222679D01*
X0470000Y0222679D02*
X0470000Y0231679D01*
X0467700Y0227179D02*
X0470000Y0222679D01*
X0472300Y0227179D01*
X0467700Y0227179D01*
X0470000Y0222679D02*
X0472300Y0222679D01*
X0481000Y0502679D02*
X0459000Y0502679D01*
X0459000Y0542679D01*
X0481000Y0542679D01*
X0481000Y0502679D01*
X0470000Y0517679D02*
X0470000Y0522679D01*
X0467700Y0522679D01*
X0470000Y0522679D02*
X0470000Y0531679D01*
X0467700Y0527179D02*
X0470000Y0522679D01*
X0472300Y0527179D01*
X0467700Y0527179D01*
X0470000Y0522679D02*
X0472300Y0522679D01*
X0954000Y0542679D02*
X0954000Y0502679D01*
X0976000Y0502679D01*
X0976000Y0542679D01*
X0954000Y0542679D01*
X0965000Y0531679D02*
X0965000Y0522679D01*
X0962700Y0522679D01*
X0965000Y0522679D02*
X0962700Y0527179D01*
X0967300Y0527179D01*
X0965000Y0522679D01*
X0967300Y0522679D01*
X0965000Y0522679D02*
X0965000Y0517679D01*
X0954000Y0242679D02*
X0954000Y0202679D01*
X0976000Y0202679D01*
X0976000Y0242679D01*
X0954000Y0242679D01*
X0965000Y0231679D02*
X0965000Y0222679D01*
X0962700Y0222679D01*
X0965000Y0222679D02*
X0962700Y0227179D01*
X0967300Y0227179D01*
X0965000Y0222679D01*
X0967300Y0222679D01*
X0965000Y0222679D02*
X0965000Y0217679D01*
D11*
X0965000Y0207679D03*
X0470000Y0207679D03*
X0470000Y0507679D03*
X0965000Y0507679D03*
D12*
X0965000Y0500929D03*
X0965000Y0544429D03*
X0470000Y0544429D03*
X0470000Y0500929D03*
X0470000Y0244429D03*
X0470000Y0200929D03*
X0965000Y0200929D03*
X0965000Y0244429D03*
D13*
X0978501Y0215139D02*
X0981503Y0215139D01*
X0982254Y0214388D01*
X0982254Y0212887D01*
X0981503Y0212136D01*
X0980753Y0212136D01*
X0980002Y0212887D01*
X0980002Y0215139D01*
X0978501Y0215139D02*
X0977750Y0214388D01*
X0977750Y0212887D01*
X0978501Y0212136D01*
X0977750Y0210535D02*
X0977750Y0207532D01*
X0977750Y0209034D02*
X0982254Y0209034D01*
X0980753Y0207532D01*
X0981503Y0205931D02*
X0982254Y0205180D01*
X0982254Y0202929D01*
X0977750Y0202929D01*
X0977750Y0205180D01*
X0978501Y0205931D01*
X0981503Y0205931D01*
X0487254Y0205180D02*
X0487254Y0202929D01*
X0482750Y0202929D01*
X0482750Y0205180D01*
X0483501Y0205931D01*
X0486503Y0205931D01*
X0487254Y0205180D01*
X0485753Y0207532D02*
X0487254Y0209034D01*
X0482750Y0209034D01*
X0482750Y0210535D02*
X0482750Y0207532D01*
X0483501Y0212136D02*
X0486503Y0215139D01*
X0483501Y0215139D01*
X0482750Y0214388D01*
X0482750Y0212887D01*
X0483501Y0212136D01*
X0486503Y0212136D01*
X0487254Y0212887D01*
X0487254Y0214388D01*
X0486503Y0215139D01*
X0486503Y0216740D02*
X0487254Y0217491D01*
X0487254Y0218992D01*
X0486503Y0219743D01*
X0483501Y0216740D01*
X0482750Y0217491D01*
X0482750Y0218992D01*
X0483501Y0219743D01*
X0486503Y0219743D01*
X0486503Y0216740D02*
X0483501Y0216740D01*
X0482750Y0502929D02*
X0482750Y0505180D01*
X0483501Y0505931D01*
X0486503Y0505931D01*
X0487254Y0505180D01*
X0487254Y0502929D01*
X0482750Y0502929D01*
X0482750Y0507532D02*
X0485753Y0510535D01*
X0486503Y0510535D01*
X0487254Y0509784D01*
X0487254Y0508283D01*
X0486503Y0507532D01*
X0482750Y0507532D02*
X0482750Y0510535D01*
X0483501Y0512136D02*
X0482750Y0512887D01*
X0482750Y0514388D01*
X0483501Y0515139D01*
X0486503Y0515139D01*
X0487254Y0514388D01*
X0487254Y0512887D01*
X0486503Y0512136D01*
X0485753Y0512136D01*
X0485002Y0512887D01*
X0485002Y0515139D01*
X0977750Y0514388D02*
X0977750Y0512887D01*
X0978501Y0512136D01*
X0978501Y0510535D02*
X0977750Y0509784D01*
X0977750Y0508283D01*
X0978501Y0507532D01*
X0978501Y0505931D02*
X0981503Y0505931D01*
X0982254Y0505180D01*
X0982254Y0502929D01*
X0977750Y0502929D01*
X0977750Y0505180D01*
X0978501Y0505931D01*
X0981503Y0507532D02*
X0982254Y0508283D01*
X0982254Y0509784D01*
X0981503Y0510535D01*
X0980753Y0510535D01*
X0980002Y0509784D01*
X0979251Y0510535D01*
X0978501Y0510535D01*
X0980002Y0509784D02*
X0980002Y0509034D01*
X0980753Y0512136D02*
X0980002Y0512887D01*
X0980002Y0515139D01*
X0978501Y0515139D02*
X0981503Y0515139D01*
X0982254Y0514388D01*
X0982254Y0512887D01*
X0981503Y0512136D01*
X0980753Y0512136D01*
X0977750Y0514388D02*
X0978501Y0515139D01*
D14*
X0017992Y0085395D02*
X0017992Y0049962D01*
X0060906Y0049962D01*
X0060906Y0057442D01*
X0060906Y0077127D02*
X0060906Y0085395D01*
X0056575Y0085395D01*
X0038071Y0085395D02*
X0017992Y0085395D01*
X0017992Y0349962D02*
X0017992Y0385395D01*
X0038071Y0385395D01*
X0056575Y0385395D02*
X0060906Y0385395D01*
X0060906Y0377127D01*
X0060906Y0357442D02*
X0060906Y0349962D01*
X0017992Y0349962D01*
X0517992Y0349962D02*
X0517992Y0385395D01*
X0538071Y0385395D01*
X0556575Y0385395D02*
X0560906Y0385395D01*
X0560906Y0377127D01*
X0560906Y0357442D02*
X0560906Y0349962D01*
X0517992Y0349962D01*
X0517992Y0085395D02*
X0517992Y0049962D01*
X0560906Y0049962D01*
X0560906Y0057442D01*
X0560906Y0077127D02*
X0560906Y0085395D01*
X0556575Y0085395D01*
X0538071Y0085395D02*
X0517992Y0085395D01*
D15*
X0525200Y0088646D02*
X0525200Y0090180D01*
X0525967Y0090948D01*
X0525200Y0092482D02*
X0529804Y0092482D01*
X0525200Y0095552D01*
X0529804Y0095552D01*
X0529037Y0097086D02*
X0529804Y0097854D01*
X0529804Y0099388D01*
X0529037Y0100156D01*
X0528269Y0100156D01*
X0525200Y0097086D01*
X0525200Y0100156D01*
X0529037Y0090948D02*
X0529804Y0090180D01*
X0529804Y0088646D01*
X0529037Y0087879D01*
X0525967Y0087879D01*
X0525200Y0088646D01*
X0034804Y0088646D02*
X0034037Y0087879D01*
X0030967Y0087879D01*
X0030200Y0088646D01*
X0030200Y0090180D01*
X0030967Y0090948D01*
X0030200Y0092482D02*
X0034804Y0092482D01*
X0030200Y0095552D01*
X0034804Y0095552D01*
X0033269Y0097086D02*
X0034804Y0098621D01*
X0030200Y0098621D01*
X0030200Y0097086D02*
X0030200Y0100156D01*
X0034037Y0090948D02*
X0034804Y0090180D01*
X0034804Y0088646D01*
X0034037Y0387879D02*
X0030967Y0387879D01*
X0030200Y0388646D01*
X0030200Y0390180D01*
X0030967Y0390948D01*
X0030200Y0392482D02*
X0034804Y0392482D01*
X0030200Y0395552D01*
X0034804Y0395552D01*
X0034037Y0397086D02*
X0034804Y0397854D01*
X0034804Y0399388D01*
X0034037Y0400156D01*
X0033269Y0400156D01*
X0032502Y0399388D01*
X0031735Y0400156D01*
X0030967Y0400156D01*
X0030200Y0399388D01*
X0030200Y0397854D01*
X0030967Y0397086D01*
X0032502Y0398621D02*
X0032502Y0399388D01*
X0034037Y0390948D02*
X0034804Y0390180D01*
X0034804Y0388646D01*
X0034037Y0387879D01*
X0525200Y0388646D02*
X0525200Y0390180D01*
X0525967Y0390948D01*
X0525200Y0392482D02*
X0529804Y0392482D01*
X0525200Y0395552D01*
X0529804Y0395552D01*
X0527502Y0397086D02*
X0527502Y0400156D01*
X0529804Y0399388D02*
X0527502Y0397086D01*
X0525200Y0399388D02*
X0529804Y0399388D01*
X0529037Y0390948D02*
X0529804Y0390180D01*
X0529804Y0388646D01*
X0529037Y0387879D01*
X0525967Y0387879D01*
X0525200Y0388646D01*
M02*
