G75*
%MOIN*%
%OFA0B0*%
%FSLAX25Y25*%
%IPPOS*%
%LPD*%
%AMOC8*
5,1,8,0,0,1.08239X$1,22.5*
%
%ADD10C,0.11800*%
%ADD11OC8,0.06000*%
%ADD12C,0.08300*%
%ADD13OC8,0.08300*%
%ADD14C,0.09650*%
%ADD15C,0.13461*%
%ADD16C,0.06000*%
%ADD17C,0.06800*%
%ADD18C,0.08200*%
%ADD19C,0.06000*%
%ADD20C,0.08400*%
%ADD21C,0.05950*%
%ADD22C,0.05950*%
%ADD23OC8,0.07400*%
%ADD24R,0.08200X0.08200*%
%ADD25C,0.09400*%
%ADD26C,0.03162*%
%ADD27C,0.06737*%
%ADD28C,0.03753*%
%ADD29C,0.04934*%
%ADD30C,0.04369*%
D10*
X0016600Y0017679D03*
X0016600Y0287679D03*
X0481600Y0287679D03*
X0481600Y0017679D03*
D11*
X0451600Y0017679D03*
X0441600Y0017679D03*
X0431600Y0017679D03*
X0421600Y0017679D03*
X0411600Y0017679D03*
X0401600Y0017679D03*
X0391600Y0017679D03*
X0381600Y0017679D03*
X0371600Y0017679D03*
X0361600Y0017679D03*
X0351600Y0022679D03*
X0351600Y0037679D03*
X0361600Y0047679D03*
X0371600Y0047679D03*
X0381600Y0047679D03*
X0391600Y0047679D03*
X0401600Y0047679D03*
X0411600Y0047679D03*
X0421600Y0047679D03*
X0431600Y0047679D03*
X0441600Y0047679D03*
X0451600Y0047679D03*
X0366600Y0087679D03*
X0351600Y0072679D03*
X0341600Y0087679D03*
X0331600Y0087679D03*
X0321600Y0072679D03*
X0321600Y0057679D03*
X0331600Y0057679D03*
X0326600Y0050179D03*
X0321600Y0037679D03*
X0321600Y0022679D03*
X0296600Y0047679D03*
X0281600Y0047679D03*
X0256600Y0072679D03*
X0256600Y0087679D03*
X0281600Y0077679D03*
X0296600Y0077679D03*
X0346600Y0107679D03*
X0356600Y0107679D03*
X0356600Y0117679D03*
X0346600Y0117679D03*
X0366600Y0117679D03*
X0376600Y0122679D03*
X0376600Y0107679D03*
X0406600Y0107679D03*
X0421600Y0112679D03*
X0429100Y0107679D03*
X0421600Y0102679D03*
X0406600Y0122679D03*
X0391600Y0142679D03*
X0391600Y0152679D03*
X0406600Y0172679D03*
X0406600Y0182679D03*
X0406600Y0192679D03*
X0381600Y0207679D03*
X0366600Y0222679D03*
X0381600Y0237679D03*
X0406600Y0222679D03*
X0416600Y0227679D03*
X0426600Y0227679D03*
X0426600Y0217679D03*
X0416600Y0217679D03*
X0366600Y0192679D03*
X0376600Y0182679D03*
X0346600Y0182679D03*
X0331600Y0152679D03*
X0331600Y0142679D03*
X0301600Y0152679D03*
X0281600Y0167679D03*
X0271600Y0182679D03*
X0271600Y0192679D03*
X0251600Y0192679D03*
X0241600Y0192679D03*
X0241600Y0207679D03*
X0221600Y0222679D03*
X0211600Y0222679D03*
X0166600Y0222679D03*
X0156600Y0222679D03*
X0166600Y0232679D03*
X0166600Y0242679D03*
X0141600Y0227679D03*
X0141600Y0217679D03*
X0151600Y0202679D03*
X0151600Y0187679D03*
X0161600Y0187679D03*
X0176600Y0177679D03*
X0176600Y0167679D03*
X0161600Y0157679D03*
X0141600Y0157679D03*
X0131600Y0157679D03*
X0121600Y0172679D03*
X0121600Y0187679D03*
X0121600Y0202679D03*
X0151600Y0172679D03*
X0191600Y0152679D03*
X0201600Y0152679D03*
X0206600Y0167679D03*
X0231600Y0152679D03*
X0241600Y0142679D03*
X0261600Y0152679D03*
X0271600Y0152679D03*
X0251600Y0167679D03*
X0236600Y0167679D03*
X0271600Y0207679D03*
X0296600Y0217679D03*
X0271600Y0227679D03*
X0271600Y0237679D03*
X0271600Y0252679D03*
X0296600Y0247679D03*
X0321600Y0227679D03*
X0331600Y0227679D03*
X0341600Y0227679D03*
X0341600Y0217679D03*
X0341600Y0242679D03*
X0341600Y0252679D03*
X0261600Y0272679D03*
X0251600Y0272679D03*
X0241600Y0252679D03*
X0166600Y0267679D03*
X0166600Y0277679D03*
X0166600Y0287679D03*
X0156600Y0287679D03*
X0141600Y0287679D03*
X0131600Y0287679D03*
X0066600Y0252679D03*
X0056600Y0252679D03*
X0031600Y0249179D03*
X0056600Y0237679D03*
X0066600Y0237679D03*
X0061600Y0222679D03*
X0071600Y0222679D03*
X0066600Y0207679D03*
X0056600Y0207679D03*
X0031600Y0219179D03*
X0121600Y0127679D03*
X0151600Y0127679D03*
X0166600Y0127679D03*
X0166600Y0117679D03*
X0151600Y0097679D03*
X0121600Y0097679D03*
X0181600Y0087679D03*
X0191600Y0087679D03*
X0206600Y0087679D03*
X0216600Y0077679D03*
X0226600Y0072679D03*
X0216600Y0067679D03*
X0206600Y0057679D03*
X0191600Y0052679D03*
X0191600Y0072679D03*
X0181600Y0072679D03*
X0226600Y0087679D03*
X0241600Y0112679D03*
X0226600Y0117679D03*
X0226600Y0127679D03*
X0131600Y0052679D03*
X0076600Y0047679D03*
X0046600Y0047679D03*
X0461600Y0172679D03*
X0471600Y0172679D03*
D12*
X0186600Y0247679D03*
X0151600Y0272679D03*
X0186600Y0282679D03*
X0131600Y0242679D03*
X0111600Y0287679D03*
D13*
X0091600Y0287679D03*
X0131600Y0272679D03*
X0151600Y0242679D03*
X0186600Y0227679D03*
X0186600Y0262679D03*
D14*
X0451600Y0257104D02*
X0451600Y0248254D01*
X0451600Y0197104D02*
X0451600Y0188254D01*
D15*
X0469600Y0152679D03*
X0469600Y0102679D03*
D16*
X0376600Y0132679D03*
X0366600Y0132679D03*
X0356600Y0132679D03*
X0346600Y0132679D03*
X0346600Y0162679D03*
X0356600Y0162679D03*
X0366600Y0162679D03*
X0376600Y0162679D03*
X0211600Y0137679D03*
X0201600Y0137679D03*
X0191600Y0137679D03*
X0181600Y0137679D03*
X0181600Y0107679D03*
X0191600Y0107679D03*
X0201600Y0107679D03*
X0211600Y0107679D03*
X0236600Y0062679D03*
X0236600Y0052679D03*
X0276600Y0032679D03*
X0276600Y0022679D03*
X0306600Y0022679D03*
X0306600Y0032679D03*
X0016600Y0042679D03*
X0016600Y0052679D03*
D17*
X0018600Y0147679D02*
X0012600Y0147679D01*
X0013600Y0157679D02*
X0019600Y0157679D01*
X0018600Y0167679D02*
X0012600Y0167679D01*
X0013600Y0177679D02*
X0019600Y0177679D01*
X0448600Y0137679D02*
X0454600Y0137679D01*
X0454600Y0127679D02*
X0448600Y0127679D01*
X0448600Y0117679D02*
X0454600Y0117679D01*
D18*
X0321600Y0197679D03*
X0314100Y0202679D03*
X0321600Y0207679D03*
X0296600Y0202679D03*
X0289100Y0197679D03*
X0296600Y0192679D03*
X0221600Y0197679D03*
X0214100Y0202679D03*
X0221600Y0207679D03*
X0314100Y0247679D03*
X0321600Y0252679D03*
X0321600Y0242679D03*
X0436600Y0252679D03*
X0436600Y0262679D03*
X0436600Y0227679D03*
X0436600Y0217679D03*
X0016600Y0222679D03*
X0016600Y0232679D03*
X0016600Y0242679D03*
X0016600Y0252679D03*
X0016600Y0212679D03*
X0016600Y0127679D03*
X0016600Y0117679D03*
D19*
X0389000Y0172679D02*
X0394200Y0172679D01*
X0394200Y0182679D02*
X0389000Y0182679D01*
X0389000Y0192679D02*
X0394200Y0192679D01*
D20*
X0249400Y0036579D03*
X0223800Y0036579D03*
X0223800Y0018779D03*
X0249400Y0018779D03*
D21*
X0104175Y0127679D02*
X0099025Y0127679D01*
X0099025Y0137679D02*
X0104175Y0137679D01*
X0104175Y0147679D02*
X0099025Y0147679D01*
X0099025Y0157679D02*
X0104175Y0157679D01*
X0104175Y0167679D02*
X0099025Y0167679D01*
X0099025Y0177679D02*
X0104175Y0177679D01*
X0104175Y0187679D02*
X0099025Y0187679D01*
X0099025Y0197679D02*
X0104175Y0197679D01*
X0104175Y0207679D02*
X0099025Y0207679D01*
X0099025Y0217679D02*
X0104175Y0217679D01*
X0104175Y0227679D02*
X0099025Y0227679D01*
X0099025Y0237679D02*
X0104175Y0237679D01*
X0104175Y0247679D02*
X0099025Y0247679D01*
X0099025Y0257679D02*
X0104175Y0257679D01*
X0104175Y0267679D02*
X0099025Y0267679D01*
X0044175Y0267679D02*
X0039025Y0267679D01*
X0039025Y0257679D02*
X0044175Y0257679D01*
X0044175Y0247679D02*
X0039025Y0247679D01*
X0039025Y0237679D02*
X0044175Y0237679D01*
X0044175Y0227679D02*
X0039025Y0227679D01*
X0039025Y0217679D02*
X0044175Y0217679D01*
X0044175Y0207679D02*
X0039025Y0207679D01*
X0039025Y0197679D02*
X0044175Y0197679D01*
X0044175Y0187679D02*
X0039025Y0187679D01*
X0039025Y0177679D02*
X0044175Y0177679D01*
X0044175Y0167679D02*
X0039025Y0167679D01*
X0039025Y0157679D02*
X0044175Y0157679D01*
X0044175Y0147679D02*
X0039025Y0147679D01*
X0039025Y0137679D02*
X0044175Y0137679D01*
X0044175Y0127679D02*
X0039025Y0127679D01*
D22*
X0061600Y0132679D03*
X0071600Y0132679D03*
X0081600Y0132679D03*
X0081600Y0122679D03*
X0071600Y0122679D03*
X0061600Y0122679D03*
D23*
X0056600Y0280179D03*
X0051600Y0287679D03*
X0061600Y0287679D03*
D24*
X0016600Y0202679D03*
D25*
X0471600Y0215592D03*
X0471600Y0229371D03*
X0471600Y0250592D03*
X0471600Y0264371D03*
D26*
X0162584Y0080513D03*
X0162584Y0015553D03*
X0044474Y0015553D03*
X0044474Y0080513D03*
D27*
X0078530Y0016553D03*
X0088530Y0016553D03*
X0098530Y0016553D03*
X0108530Y0016553D03*
X0118530Y0016553D03*
X0128530Y0016553D03*
D28*
X0201889Y0032968D03*
D29*
X0191311Y0022389D03*
D30*
X0171600Y0022679D03*
X0196100Y0010679D03*
X0156600Y0072679D03*
X0126600Y0072679D03*
X0096600Y0072679D03*
X0091600Y0072679D03*
X0086600Y0077679D03*
X0076600Y0077679D03*
X0061600Y0082679D03*
X0061600Y0087679D03*
X0061600Y0092679D03*
X0051600Y0087679D03*
X0051600Y0082679D03*
X0046600Y0092679D03*
X0076600Y0102679D03*
X0086600Y0102679D03*
X0091600Y0102679D03*
X0096600Y0102679D03*
X0111600Y0132679D03*
X0061600Y0142679D03*
X0021600Y0157679D03*
X0071600Y0172679D03*
X0076600Y0187679D03*
X0086600Y0197679D03*
X0081600Y0212679D03*
X0086600Y0217679D03*
X0076600Y0232679D03*
X0061600Y0202679D03*
X0056600Y0197679D03*
X0171600Y0137679D03*
X0191600Y0122679D03*
X0206600Y0127679D03*
X0211600Y0127679D03*
X0201600Y0172679D03*
X0206600Y0177679D03*
X0186600Y0172679D03*
X0186600Y0207679D03*
X0181600Y0217679D03*
X0176600Y0217679D03*
X0201600Y0207679D03*
X0176600Y0237679D03*
X0176600Y0242679D03*
X0076600Y0272679D03*
X0068600Y0271179D03*
X0316600Y0142679D03*
X0321600Y0142679D03*
X0326600Y0157679D03*
X0356600Y0192679D03*
X0356600Y0222679D03*
X0321600Y0117679D03*
X0316600Y0117679D03*
M02*
