G75*
%MOIN*%
%OFA0B0*%
%FSLAX25Y25*%
%IPPOS*%
%LPD*%
%AMOC8*
5,1,8,0,0,1.08239X$1,22.5*
%
%ADD10R,0.07283X0.04331*%
%ADD11R,0.07480X0.07874*%
D10*
G36*
X0184489Y0028932D02*
X0179341Y0034080D01*
X0182403Y0037142D01*
X0187551Y0031994D01*
X0184489Y0028932D01*
G37*
G36*
X0188387Y0032830D02*
X0183239Y0037978D01*
X0186301Y0041040D01*
X0191449Y0035892D01*
X0188387Y0032830D01*
G37*
G36*
X0192284Y0036727D02*
X0187136Y0041875D01*
X0190198Y0044937D01*
X0195346Y0039789D01*
X0192284Y0036727D01*
G37*
G36*
X0210797Y0018215D02*
X0205649Y0023363D01*
X0208711Y0026425D01*
X0213859Y0021277D01*
X0210797Y0018215D01*
G37*
G36*
X0206899Y0014317D02*
X0201751Y0019465D01*
X0204813Y0022527D01*
X0209961Y0017379D01*
X0206899Y0014317D01*
G37*
G36*
X0203002Y0010420D02*
X0197854Y0015568D01*
X0200916Y0018630D01*
X0206064Y0013482D01*
X0203002Y0010420D01*
G37*
D11*
G36*
X0184964Y0010753D02*
X0179675Y0016042D01*
X0185242Y0021609D01*
X0190531Y0016320D01*
X0184964Y0010753D01*
G37*
G36*
X0207958Y0033748D02*
X0202669Y0039037D01*
X0208236Y0044604D01*
X0213525Y0039315D01*
X0207958Y0033748D01*
G37*
M02*
