%
M48
M72
T01C0.01969
T02C0.02362
T03C0.02953
T04C0.03150
T05C0.03200
T06C0.03937
T07C0.04000
T08C0.04134
T09C0.05900
T10C0.08661
T11C0.11000
%
T01
X91600Y72679
X96600Y72679
X86600Y77679
X76600Y77679
X61600Y82679
X61600Y87679
X61600Y92679
X51600Y87679
X51600Y82679
X46600Y92679
X76600Y102679
X86600Y102679
X91600Y102679
X96600Y102679
X111600Y132679
X61600Y142679
X21600Y157679
X71600Y172679
X76600Y187679
X86600Y197679
X81600Y212679
X86600Y217679
X76600Y232679
X61600Y202679
X56600Y197679
X171600Y137679
X191600Y122679
X206600Y127679
X211600Y127679
X201600Y172679
X206600Y177679
X186600Y172679
X186600Y207679
X181600Y217679
X176600Y217679
X201600Y207679
X176600Y237679
X176600Y242679
X76600Y272679
X68600Y271179
X316600Y142679
X321600Y142679
X326600Y157679
X356600Y192679
X356600Y222679
X321600Y117679
X316600Y117679
X156600Y72679
X126600Y72679
X171600Y22679
X196100Y10679
T02
X162584Y15553
X162584Y80513
X44474Y80513
X44474Y15553
T03
X201889Y32968
T04
X81600Y122679
X71600Y122679
X61600Y122679
X61600Y132679
X71600Y132679
X81600Y132679
X101600Y137679
X101600Y147679
X101600Y157679
X101600Y167679
X101600Y177679
X101600Y187679
X101600Y197679
X101600Y207679
X101600Y217679
X101600Y227679
X101600Y237679
X101600Y247679
X101600Y257679
X101600Y267679
X41600Y267679
X41600Y257679
X41600Y247679
X41600Y237679
X41600Y227679
X41600Y217679
X41600Y207679
X41600Y197679
X41600Y187679
X41600Y177679
X41600Y167679
X41600Y157679
X41600Y147679
X41600Y137679
X41600Y127679
X101600Y127679
T05
X121600Y127679
X151600Y127679
X166600Y127679
X166600Y117679
X181600Y107679
X191600Y107679
X201600Y107679
X211600Y107679
X226600Y117679
X226600Y127679
X211600Y137679
X201600Y137679
X191600Y137679
X181600Y137679
X191600Y152679
X201600Y152679
X206600Y167679
X231600Y152679
X241600Y142679
X261600Y152679
X271600Y152679
X281600Y167679
X271600Y182679
X271600Y192679
X289100Y197679
X296600Y202679
X296600Y192679
X314100Y202679
X321600Y207679
X341600Y217679
X341600Y227679
X331600Y227679
X321600Y227679
X321600Y242679
X314100Y247679
X321600Y252679
X341600Y252679
X341600Y242679
X366600Y222679
X381600Y237679
X406600Y222679
X416600Y227679
X426600Y227679
X426600Y217679
X416600Y217679
X381600Y207679
X391600Y192679
X391600Y182679
X376600Y182679
X366600Y192679
X346600Y182679
X321600Y197679
X296600Y217679
X271600Y227679
X271600Y237679
X271600Y252679
X296600Y247679
X261600Y272679
X251600Y272679
X241600Y252679
X221600Y222679
X211600Y222679
X221600Y207679
X214100Y202679
X221600Y197679
X241600Y192679
X251600Y192679
X241600Y207679
X271600Y207679
X251600Y167679
X236600Y167679
X176600Y167679
X176600Y177679
X161600Y187679
X151600Y187679
X151600Y202679
X141600Y217679
X141600Y227679
X156600Y222679
X166600Y222679
X166600Y232679
X166600Y242679
X151600Y242679
X131600Y242679
X166600Y267679
X151600Y272679
X166600Y277679
X166600Y287679
X156600Y287679
X141600Y287679
X131600Y287679
X111600Y287679
X91600Y287679
X61600Y287679
X56600Y280179
X51600Y287679
X56600Y252679
X66600Y252679
X66600Y237679
X56600Y237679
X31600Y249179
X61600Y222679
X71600Y222679
X66600Y207679
X56600Y207679
X31600Y219179
X121600Y202679
X121600Y187679
X121600Y172679
X131600Y157679
X141600Y157679
X161600Y157679
X151600Y172679
X186600Y227679
X186600Y247679
X186600Y262679
X186600Y282679
X131600Y272679
X301600Y152679
X331600Y152679
X346600Y162679
X356600Y162679
X366600Y162679
X376600Y162679
X391600Y172679
X406600Y172679
X406600Y182679
X406600Y192679
X461600Y172679
X471600Y172679
X391600Y152679
X391600Y142679
X376600Y132679
X366600Y132679
X356600Y132679
X346600Y132679
X331600Y142679
X346600Y117679
X356600Y117679
X366600Y117679
X376600Y122679
X376600Y107679
X356600Y107679
X346600Y107679
X341600Y87679
X331600Y87679
X321600Y72679
X321600Y57679
X331600Y57679
X326600Y50179
X321600Y37679
X306600Y32679
X306600Y22679
X321600Y22679
X351600Y22679
X361600Y17679
X371600Y17679
X381600Y17679
X391600Y17679
X401600Y17679
X411600Y17679
X421600Y17679
X431600Y17679
X441600Y17679
X451600Y17679
X451600Y47679
X441600Y47679
X431600Y47679
X421600Y47679
X411600Y47679
X401600Y47679
X391600Y47679
X381600Y47679
X371600Y47679
X361600Y47679
X351600Y37679
X296600Y47679
X281600Y47679
X276600Y32679
X276600Y22679
X236600Y52679
X236600Y62679
X226600Y72679
X216600Y77679
X216600Y67679
X206600Y57679
X191600Y52679
X191600Y72679
X181600Y72679
X181600Y87679
X191600Y87679
X206600Y87679
X226600Y87679
X256600Y87679
X256600Y72679
X281600Y77679
X296600Y77679
X351600Y72679
X366600Y87679
X406600Y107679
X421600Y112679
X429100Y107679
X421600Y102679
X406600Y122679
X241600Y112679
X151600Y97679
X121600Y97679
X131600Y52679
X76600Y47679
X46600Y47679
X16600Y52679
X16600Y42679
T06
X78530Y16553
X88530Y16553
X98530Y16553
X108530Y16553
X118530Y16553
X128530Y16553
X471600Y215592
X471600Y229371
X471600Y250592
X471600Y264371
T07
X436600Y262679
X436600Y252679
X436600Y227679
X436600Y217679
X451600Y137679
X451600Y127679
X451600Y117679
X249400Y36579
X223800Y36579
X223800Y18779
X249400Y18779
X16600Y117679
X16600Y127679
X15600Y147679
X16600Y157679
X15600Y167679
X16600Y177679
X16600Y202679
X16600Y212679
X16600Y222679
X16600Y232679
X16600Y242679
X16600Y252679
T08
X191311Y22389
T09
X451600Y192679
X451600Y252679
T10
X469600Y152679
X469600Y102679
T11
X16600Y17679
X16600Y287679
X481600Y287679
X481600Y17679
M30
