G75*
%MOIN*%
%OFA0B0*%
%FSLAX25Y25*%
%IPPOS*%
%LPD*%
%AMOC8*
5,1,8,0,0,1.08239X$1,22.5*
%
%ADD10C,0.00600*%
%ADD11R,0.22000X0.03000*%
%ADD12R,0.05000X0.03500*%
%ADD13C,0.00500*%
D10*
X0440600Y0202679D02*
X0440600Y0242679D01*
X0462600Y0242679D01*
X0462600Y0202679D01*
X0440600Y0202679D01*
X0451600Y0217679D02*
X0451600Y0222679D01*
X0449300Y0222679D01*
X0451600Y0222679D02*
X0449300Y0227179D01*
X0453900Y0227179D01*
X0451600Y0222679D01*
X0451600Y0231679D01*
X0451600Y0222679D02*
X0453900Y0222679D01*
D11*
X0451600Y0207679D03*
D12*
X0451600Y0200929D03*
X0451600Y0244429D03*
D13*
X0465101Y0219743D02*
X0464350Y0218992D01*
X0464350Y0217491D01*
X0465101Y0216740D01*
X0468103Y0219743D01*
X0465101Y0219743D01*
X0468103Y0219743D02*
X0468854Y0218992D01*
X0468854Y0217491D01*
X0468103Y0216740D01*
X0465101Y0216740D01*
X0465101Y0215139D02*
X0464350Y0214388D01*
X0464350Y0212887D01*
X0465101Y0212136D01*
X0468103Y0215139D01*
X0465101Y0215139D01*
X0468103Y0215139D02*
X0468854Y0214388D01*
X0468854Y0212887D01*
X0468103Y0212136D01*
X0465101Y0212136D01*
X0464350Y0210535D02*
X0464350Y0207532D01*
X0464350Y0209034D02*
X0468854Y0209034D01*
X0467353Y0207532D01*
X0468103Y0205931D02*
X0465101Y0205931D01*
X0464350Y0205180D01*
X0464350Y0202929D01*
X0468854Y0202929D01*
X0468854Y0205180D01*
X0468103Y0205931D01*
M02*
