%
M48
M72
T01C0.01969
T02C0.02362
T03C0.02953
T04C0.03150
T05C0.03200
T06C0.03937
T07C0.04000
T08C0.04134
T09C0.05900
T10C0.08661
T11C0.11000
T12C0.11024
T13C0.12598
%
T01
X110000Y77657
X115000Y77657
X105000Y82657
X95000Y82657
X80000Y87657
X80000Y92657
X70000Y92657
X70000Y87657
X65000Y97657
X80000Y97657
X95000Y107657
X105000Y107657
X110000Y107657
X115000Y107657
X145000Y77657
X175000Y77657
X210000Y127657
X225000Y132657
X230000Y132657
X190000Y142657
X205000Y177657
X220000Y177657
X225000Y182657
X220000Y212657
X205000Y212657
X200000Y222657
X195000Y222657
X195000Y242657
X195000Y247657
X105000Y222657
X100000Y217657
X80000Y207657
X75000Y202657
X95000Y192657
X105000Y202657
X90000Y177657
X40000Y162657
X80000Y147657
X130000Y137657
X95000Y237657
X87000Y276157
X95000Y277657
X335000Y147657
X340000Y147657
X345000Y162657
X375000Y197657
X375000Y227657
X340000Y122657
X335000Y122657
X190000Y27657
X214500Y15657
T02
X180984Y20531
X180984Y85492
X62874Y85492
X62874Y20531
T03
X220289Y37946
T04
X100000Y127657
X90000Y127657
X80000Y127657
X80000Y137657
X90000Y137657
X100000Y137657
X120000Y132657
X120000Y142657
X120000Y152657
X120000Y162657
X120000Y172657
X120000Y182657
X120000Y192657
X120000Y202657
X120000Y212657
X120000Y222657
X120000Y232657
X120000Y242657
X120000Y252657
X120000Y262657
X120000Y272657
X60000Y272657
X60000Y262657
X60000Y252657
X60000Y242657
X60000Y232657
X60000Y222657
X60000Y212657
X60000Y202657
X60000Y192657
X60000Y182657
X60000Y172657
X60000Y162657
X60000Y152657
X60000Y142657
X60000Y132657
T05
X140000Y132657
X170000Y132657
X185000Y132657
X185000Y122657
X200000Y112657
X210000Y112657
X220000Y112657
X230000Y112657
X245000Y122657
X245000Y132657
X230000Y142657
X220000Y142657
X210000Y142657
X200000Y142657
X210000Y157657
X220000Y157657
X225000Y172657
X250000Y157657
X260000Y147657
X280000Y157657
X290000Y157657
X300000Y172657
X290000Y187657
X290000Y197657
X307500Y202657
X315000Y197657
X315000Y207657
X332500Y207657
X340000Y202657
X340000Y212657
X360000Y222657
X360000Y232657
X350000Y232657
X340000Y232657
X340000Y247657
X332500Y252657
X340000Y257657
X360000Y257657
X360000Y247657
X385000Y227657
X400000Y212657
X410000Y197657
X410000Y187657
X410000Y177657
X425000Y177657
X425000Y187657
X425000Y197657
X395000Y187657
X385000Y197657
X365000Y187657
X365000Y167657
X375000Y167657
X385000Y167657
X395000Y167657
X410000Y157657
X410000Y147657
X395000Y137657
X385000Y137657
X375000Y137657
X365000Y137657
X350000Y147657
X350000Y157657
X320000Y157657
X270000Y172657
X255000Y172657
X260000Y197657
X270000Y197657
X260000Y212657
X240000Y212657
X232500Y207657
X240000Y202657
X240000Y227657
X230000Y227657
X205000Y232657
X185000Y227657
X175000Y227657
X185000Y237657
X185000Y247657
X170000Y247657
X150000Y247657
X160000Y232657
X160000Y222657
X170000Y207657
X170000Y192657
X180000Y192657
X195000Y182657
X195000Y172657
X180000Y162657
X160000Y162657
X150000Y162657
X140000Y177657
X140000Y192657
X140000Y207657
X170000Y177657
X85000Y212657
X75000Y212657
X50000Y224157
X80000Y227657
X90000Y227657
X85000Y242657
X75000Y242657
X50000Y254157
X75000Y257657
X85000Y257657
X75000Y285157
X70000Y292657
X80000Y292657
X110000Y292657
X130000Y292657
X150000Y292657
X160000Y292657
X175000Y292657
X185000Y292657
X185000Y282657
X185000Y272657
X170000Y277657
X150000Y277657
X205000Y267657
X205000Y252657
X260000Y257657
X270000Y277657
X280000Y277657
X290000Y257657
X315000Y252657
X290000Y242657
X290000Y232657
X315000Y222657
X290000Y212657
X400000Y242657
X425000Y227657
X435000Y222657
X445000Y222657
X445000Y232657
X435000Y232657
X480000Y177657
X490000Y177657
X425000Y127657
X440000Y117657
X447500Y112657
X440000Y107657
X425000Y112657
X395000Y112657
X385000Y122657
X375000Y122657
X365000Y122657
X365000Y112657
X375000Y112657
X395000Y127657
X385000Y92657
X370000Y77657
X360000Y92657
X350000Y92657
X340000Y77657
X340000Y62657
X350000Y62657
X345000Y55157
X340000Y42657
X325000Y37657
X325000Y27657
X340000Y27657
X370000Y27657
X380000Y22657
X390000Y22657
X400000Y22657
X410000Y22657
X420000Y22657
X430000Y22657
X440000Y22657
X450000Y22657
X460000Y22657
X470000Y22657
X470000Y52657
X460000Y52657
X450000Y52657
X440000Y52657
X430000Y52657
X420000Y52657
X410000Y52657
X400000Y52657
X390000Y52657
X380000Y52657
X370000Y42657
X315000Y52657
X300000Y52657
X295000Y37657
X295000Y27657
X255000Y57657
X255000Y67657
X245000Y77657
X235000Y72657
X235000Y82657
X225000Y92657
X210000Y92657
X200000Y92657
X200000Y77657
X210000Y77657
X225000Y62657
X210000Y57657
X245000Y92657
X275000Y92657
X275000Y77657
X300000Y82657
X315000Y82657
X260000Y117657
X170000Y102657
X140000Y102657
X150000Y57657
X95000Y52657
X65000Y52657
X40000Y47657
X30000Y47657
X205000Y287657
T06
X490000Y269350
X490000Y255570
X490000Y234350
X490000Y220570
X146930Y21531
X136930Y21531
X126930Y21531
X116930Y21531
X106930Y21531
X96930Y21531
T07
X242200Y23757
X267800Y23757
X267800Y41557
X242200Y41557
X35000Y122657
X35000Y132657
X34000Y152657
X35000Y162657
X34000Y172657
X35000Y182657
X35000Y207657
X35000Y217657
X35000Y227657
X35000Y237657
X35000Y247657
X35000Y257657
X455000Y257657
X455000Y267657
X455000Y232657
X455000Y222657
X470000Y142657
X470000Y132657
X470000Y122657
T08
X209711Y27368
T09
X470000Y197657
X470000Y257657
T10
X488000Y157657
X488000Y107657
T11
X35000Y22657
X35000Y292657
X500000Y292657
X500000Y22657
T12
X47323Y91555
X33937Y72657
T13
X58543Y72657
M30
