G75*
%MOIN*%
%OFA0B0*%
%FSLAX25Y25*%
%IPPOS*%
%LPD*%
%AMOC8*
5,1,8,0,0,1.08239X$1,22.5*
%
%ADD10C,0.00400*%
%ADD11C,0.00500*%
%ADD12C,0.00600*%
%ADD13R,0.22000X0.03000*%
%ADD14R,0.05000X0.03500*%
%ADD15C,0.00800*%
D10*
X0026335Y0092879D02*
X0029404Y0092879D01*
X0030939Y0092879D02*
X0030939Y0097482D01*
X0029404Y0095948D02*
X0027869Y0097482D01*
X0027869Y0092879D01*
X0030939Y0092879D02*
X0034008Y0097482D01*
X0034008Y0092879D01*
X0035543Y0093646D02*
X0036310Y0092879D01*
X0037844Y0092879D01*
X0038612Y0093646D01*
X0038612Y0096715D01*
X0037844Y0097482D01*
X0036310Y0097482D01*
X0035543Y0096715D01*
X0036310Y0392879D02*
X0035543Y0393646D01*
X0036310Y0392879D02*
X0037844Y0392879D01*
X0038612Y0393646D01*
X0038612Y0396715D01*
X0037844Y0397482D01*
X0036310Y0397482D01*
X0035543Y0396715D01*
X0034008Y0397482D02*
X0030939Y0392879D01*
X0030939Y0397482D01*
X0029404Y0395948D02*
X0027869Y0397482D01*
X0027869Y0392879D01*
X0026335Y0392879D02*
X0029404Y0392879D01*
X0034008Y0392879D02*
X0034008Y0397482D01*
X0521335Y0392879D02*
X0524404Y0392879D01*
X0525939Y0392879D02*
X0525939Y0397482D01*
X0524404Y0395948D02*
X0522869Y0397482D01*
X0522869Y0392879D01*
X0525939Y0392879D02*
X0529008Y0397482D01*
X0529008Y0392879D01*
X0530543Y0393646D02*
X0531310Y0392879D01*
X0532844Y0392879D01*
X0533612Y0393646D01*
X0533612Y0396715D01*
X0532844Y0397482D01*
X0531310Y0397482D01*
X0530543Y0396715D01*
X0531310Y0097482D02*
X0532844Y0097482D01*
X0533612Y0096715D01*
X0533612Y0093646D01*
X0532844Y0092879D01*
X0531310Y0092879D01*
X0530543Y0093646D01*
X0529008Y0092879D02*
X0529008Y0097482D01*
X0525939Y0092879D01*
X0525939Y0097482D01*
X0524404Y0095948D02*
X0522869Y0097482D01*
X0522869Y0092879D01*
X0521335Y0092879D02*
X0524404Y0092879D01*
X0530543Y0096715D02*
X0531310Y0097482D01*
D11*
X0487254Y0202929D02*
X0482750Y0202929D01*
X0482750Y0205180D01*
X0483501Y0205931D01*
X0486503Y0205931D01*
X0487254Y0205180D01*
X0487254Y0202929D01*
X0485753Y0207532D02*
X0487254Y0209034D01*
X0482750Y0209034D01*
X0482750Y0210535D02*
X0482750Y0207532D01*
X0483501Y0212136D02*
X0486503Y0215139D01*
X0483501Y0215139D01*
X0482750Y0214388D01*
X0482750Y0212887D01*
X0483501Y0212136D01*
X0486503Y0212136D01*
X0487254Y0212887D01*
X0487254Y0214388D01*
X0486503Y0215139D01*
X0486503Y0216740D02*
X0487254Y0217491D01*
X0487254Y0218992D01*
X0486503Y0219743D01*
X0483501Y0216740D01*
X0482750Y0217491D01*
X0482750Y0218992D01*
X0483501Y0219743D01*
X0486503Y0219743D01*
X0486503Y0216740D02*
X0483501Y0216740D01*
X0482750Y0502929D02*
X0482750Y0505180D01*
X0483501Y0505931D01*
X0486503Y0505931D01*
X0487254Y0505180D01*
X0487254Y0502929D01*
X0482750Y0502929D01*
X0482750Y0507532D02*
X0482750Y0510535D01*
X0482750Y0509034D02*
X0487254Y0509034D01*
X0485753Y0507532D01*
X0486503Y0512136D02*
X0483501Y0512136D01*
X0486503Y0515139D01*
X0483501Y0515139D01*
X0482750Y0514388D01*
X0482750Y0512887D01*
X0483501Y0512136D01*
X0486503Y0512136D02*
X0487254Y0512887D01*
X0487254Y0514388D01*
X0486503Y0515139D01*
X0486503Y0516740D02*
X0487254Y0517491D01*
X0487254Y0518992D01*
X0486503Y0519743D01*
X0483501Y0516740D01*
X0482750Y0517491D01*
X0482750Y0518992D01*
X0483501Y0519743D01*
X0486503Y0519743D01*
X0486503Y0516740D02*
X0483501Y0516740D01*
X0977750Y0517491D02*
X0978501Y0516740D01*
X0981503Y0519743D01*
X0978501Y0519743D01*
X0977750Y0518992D01*
X0977750Y0517491D01*
X0978501Y0516740D02*
X0981503Y0516740D01*
X0982254Y0517491D01*
X0982254Y0518992D01*
X0981503Y0519743D01*
X0981503Y0515139D02*
X0978501Y0512136D01*
X0977750Y0512887D01*
X0977750Y0514388D01*
X0978501Y0515139D01*
X0981503Y0515139D01*
X0982254Y0514388D01*
X0982254Y0512887D01*
X0981503Y0512136D01*
X0978501Y0512136D01*
X0977750Y0510535D02*
X0977750Y0507532D01*
X0977750Y0509034D02*
X0982254Y0509034D01*
X0980753Y0507532D01*
X0981503Y0505931D02*
X0982254Y0505180D01*
X0982254Y0502929D01*
X0977750Y0502929D01*
X0977750Y0505180D01*
X0978501Y0505931D01*
X0981503Y0505931D01*
X0981503Y0219743D02*
X0978501Y0219743D01*
X0977750Y0218992D01*
X0977750Y0217491D01*
X0978501Y0216740D01*
X0981503Y0219743D01*
X0982254Y0218992D01*
X0982254Y0217491D01*
X0981503Y0216740D01*
X0978501Y0216740D01*
X0978501Y0215139D02*
X0977750Y0214388D01*
X0977750Y0212887D01*
X0978501Y0212136D01*
X0981503Y0215139D01*
X0978501Y0215139D01*
X0981503Y0215139D02*
X0982254Y0214388D01*
X0982254Y0212887D01*
X0981503Y0212136D01*
X0978501Y0212136D01*
X0977750Y0210535D02*
X0977750Y0207532D01*
X0977750Y0209034D02*
X0982254Y0209034D01*
X0980753Y0207532D01*
X0981503Y0205931D02*
X0982254Y0205180D01*
X0982254Y0202929D01*
X0977750Y0202929D01*
X0977750Y0205180D01*
X0978501Y0205931D01*
X0981503Y0205931D01*
D12*
X0976000Y0202679D02*
X0976000Y0242679D01*
X0954000Y0242679D01*
X0954000Y0202679D01*
X0976000Y0202679D01*
X0965000Y0217679D02*
X0965000Y0222679D01*
X0962700Y0222679D01*
X0965000Y0222679D02*
X0965000Y0231679D01*
X0962700Y0227179D02*
X0965000Y0222679D01*
X0967300Y0227179D01*
X0962700Y0227179D01*
X0965000Y0222679D02*
X0967300Y0222679D01*
X0976000Y0502679D02*
X0954000Y0502679D01*
X0954000Y0542679D01*
X0976000Y0542679D01*
X0976000Y0502679D01*
X0965000Y0517679D02*
X0965000Y0522679D01*
X0962700Y0522679D01*
X0965000Y0522679D02*
X0965000Y0531679D01*
X0962700Y0527179D02*
X0965000Y0522679D01*
X0967300Y0527179D01*
X0962700Y0527179D01*
X0965000Y0522679D02*
X0967300Y0522679D01*
X0481000Y0502679D02*
X0481000Y0542679D01*
X0459000Y0542679D01*
X0459000Y0502679D01*
X0481000Y0502679D01*
X0470000Y0517679D02*
X0470000Y0522679D01*
X0467700Y0522679D01*
X0470000Y0522679D02*
X0470000Y0531679D01*
X0467700Y0527179D02*
X0470000Y0522679D01*
X0472300Y0527179D01*
X0467700Y0527179D01*
X0470000Y0522679D02*
X0472300Y0522679D01*
X0481000Y0242679D02*
X0459000Y0242679D01*
X0459000Y0202679D01*
X0481000Y0202679D01*
X0481000Y0242679D01*
X0470000Y0231679D02*
X0470000Y0222679D01*
X0467700Y0222679D01*
X0470000Y0222679D02*
X0467700Y0227179D01*
X0472300Y0227179D01*
X0470000Y0222679D01*
X0472300Y0222679D01*
X0470000Y0222679D02*
X0470000Y0217679D01*
D13*
X0470000Y0207679D03*
X0470000Y0507679D03*
X0965000Y0507679D03*
X0965000Y0207679D03*
D14*
X0965000Y0200929D03*
X0965000Y0244429D03*
X0965000Y0500929D03*
X0965000Y0544429D03*
X0470000Y0544429D03*
X0470000Y0500929D03*
X0470000Y0244429D03*
X0470000Y0200929D03*
D15*
X0017992Y0085395D02*
X0017992Y0049962D01*
X0060906Y0049962D01*
X0060906Y0057442D01*
X0060906Y0077127D02*
X0060906Y0085395D01*
X0056575Y0085395D01*
X0038071Y0085395D02*
X0017992Y0085395D01*
X0017992Y0349962D02*
X0017992Y0385395D01*
X0038071Y0385395D01*
X0056575Y0385395D02*
X0060906Y0385395D01*
X0060906Y0377127D01*
X0060906Y0357442D02*
X0060906Y0349962D01*
X0017992Y0349962D01*
X0517992Y0349962D02*
X0517992Y0385395D01*
X0538071Y0385395D01*
X0556575Y0385395D02*
X0560906Y0385395D01*
X0560906Y0377127D01*
X0560906Y0357442D02*
X0560906Y0349962D01*
X0517992Y0349962D01*
X0517992Y0085395D02*
X0517992Y0049962D01*
X0560906Y0049962D01*
X0560906Y0057442D01*
X0560906Y0077127D02*
X0560906Y0085395D01*
X0556575Y0085395D01*
X0538071Y0085395D02*
X0517992Y0085395D01*
M02*
