%
M48
M72
T01C0.01969
T02C0.02362
T03C0.02953
T04C0.03150
T05C0.03200
T06C0.03937
T07C0.04000
T08C0.04134
T09C0.05900
T10C0.08661
T11C0.11000
T12C0.11024
T13C0.12598
%
T01
X110000Y72679
X115000Y72679
X105000Y77679
X95000Y77679
X80000Y82679
X80000Y87679
X80000Y92679
X70000Y87679
X70000Y82679
X65000Y92679
X95000Y102679
X105000Y102679
X110000Y102679
X115000Y102679
X130000Y132679
X80000Y142679
X40000Y157679
X90000Y172679
X95000Y187679
X105000Y197679
X100000Y212679
X105000Y217679
X95000Y232679
X80000Y202679
X75000Y197679
X195000Y217679
X200000Y217679
X205000Y207679
X220000Y207679
X225000Y177679
X220000Y172679
X205000Y172679
X190000Y137679
X210000Y122679
X225000Y127679
X230000Y127679
X175000Y72679
X145000Y72679
X190000Y22679
X214500Y10679
X335000Y117679
X340000Y117679
X340000Y142679
X335000Y142679
X345000Y157679
X375000Y192679
X375000Y222679
X535000Y157679
X575000Y142679
X585000Y172679
X590000Y187679
X600000Y197679
X595000Y212679
X600000Y217679
X590000Y232679
X575000Y202679
X570000Y197679
X625000Y132679
X610000Y102679
X605000Y102679
X600000Y102679
X590000Y102679
X575000Y92679
X575000Y87679
X575000Y82679
X565000Y82679
X565000Y87679
X560000Y92679
X590000Y77679
X600000Y77679
X605000Y72679
X610000Y72679
X640000Y72679
X670000Y72679
X685000Y22679
X709500Y10679
X830000Y117679
X835000Y117679
X835000Y142679
X830000Y142679
X840000Y157679
X870000Y192679
X870000Y222679
X715000Y207679
X700000Y207679
X695000Y217679
X690000Y217679
X690000Y237679
X690000Y242679
X590000Y272679
X582000Y271179
X685000Y322679
X709500Y310679
X670000Y372679
X640000Y372679
X610000Y372679
X605000Y372679
X600000Y377679
X590000Y377679
X575000Y382679
X575000Y387679
X575000Y392679
X565000Y387679
X565000Y382679
X560000Y392679
X590000Y402679
X600000Y402679
X605000Y402679
X610000Y402679
X625000Y432679
X575000Y442679
X535000Y457679
X585000Y472679
X590000Y487679
X600000Y497679
X595000Y512679
X600000Y517679
X590000Y532679
X575000Y502679
X570000Y497679
X690000Y517679
X695000Y517679
X700000Y507679
X715000Y507679
X720000Y477679
X715000Y472679
X700000Y472679
X685000Y437679
X705000Y422679
X720000Y427679
X725000Y427679
X830000Y417679
X835000Y417679
X835000Y442679
X830000Y442679
X840000Y457679
X870000Y492679
X870000Y522679
X690000Y537679
X690000Y542679
X590000Y572679
X582000Y571179
X375000Y522679
X375000Y492679
X345000Y457679
X340000Y442679
X335000Y442679
X335000Y417679
X340000Y417679
X230000Y427679
X225000Y427679
X210000Y422679
X190000Y437679
X205000Y472679
X220000Y472679
X225000Y477679
X220000Y507679
X205000Y507679
X200000Y517679
X195000Y517679
X195000Y537679
X195000Y542679
X105000Y517679
X100000Y512679
X80000Y502679
X75000Y497679
X95000Y487679
X105000Y497679
X90000Y472679
X80000Y442679
X40000Y457679
X95000Y402679
X105000Y402679
X110000Y402679
X115000Y402679
X105000Y377679
X110000Y372679
X115000Y372679
X95000Y377679
X80000Y382679
X80000Y387679
X80000Y392679
X70000Y387679
X70000Y382679
X65000Y392679
X130000Y432679
X145000Y372679
X175000Y372679
X190000Y322679
X214500Y310679
X195000Y242679
X195000Y237679
X95000Y272679
X87000Y271179
X95000Y532679
X87000Y571179
X95000Y572679
X700000Y172679
X715000Y172679
X720000Y177679
X685000Y137679
X705000Y122679
X720000Y127679
X725000Y127679
T02
X675984Y80513
X675984Y15553
X557874Y15553
X557874Y80513
X557874Y315553
X557874Y380513
X675984Y380513
X675984Y315553
X180984Y315553
X180984Y380513
X62874Y380513
X62874Y315553
X62874Y80513
X62874Y15553
X180984Y15553
X180984Y80513
T03
X220289Y32968
X220289Y332968
X715289Y332968
X715289Y32968
T04
X615000Y127679
X615000Y137679
X615000Y147679
X615000Y157679
X615000Y167679
X615000Y177679
X615000Y187679
X615000Y197679
X615000Y207679
X615000Y217679
X615000Y227679
X615000Y237679
X615000Y247679
X615000Y257679
X615000Y267679
X555000Y267679
X555000Y257679
X555000Y247679
X555000Y237679
X555000Y227679
X555000Y217679
X555000Y207679
X555000Y197679
X555000Y187679
X555000Y177679
X555000Y167679
X555000Y157679
X555000Y147679
X555000Y137679
X555000Y127679
X575000Y132679
X585000Y132679
X595000Y132679
X595000Y122679
X585000Y122679
X575000Y122679
X120000Y127679
X120000Y137679
X120000Y147679
X120000Y157679
X120000Y167679
X120000Y177679
X120000Y187679
X120000Y197679
X120000Y207679
X120000Y217679
X120000Y227679
X120000Y237679
X120000Y247679
X120000Y257679
X120000Y267679
X60000Y267679
X60000Y257679
X60000Y247679
X60000Y237679
X60000Y227679
X60000Y217679
X60000Y207679
X60000Y197679
X60000Y187679
X60000Y177679
X60000Y167679
X60000Y157679
X60000Y147679
X60000Y137679
X60000Y127679
X80000Y132679
X90000Y132679
X100000Y132679
X100000Y122679
X90000Y122679
X80000Y122679
X80000Y422679
X80000Y432679
X90000Y432679
X100000Y432679
X100000Y422679
X90000Y422679
X60000Y427679
X60000Y437679
X60000Y447679
X60000Y457679
X60000Y467679
X60000Y477679
X60000Y487679
X60000Y497679
X60000Y507679
X60000Y517679
X60000Y527679
X60000Y537679
X60000Y547679
X60000Y557679
X60000Y567679
X120000Y567679
X120000Y557679
X120000Y547679
X120000Y537679
X120000Y527679
X120000Y517679
X120000Y507679
X120000Y497679
X120000Y487679
X120000Y477679
X120000Y467679
X120000Y457679
X120000Y447679
X120000Y437679
X120000Y427679
X555000Y427679
X555000Y437679
X555000Y447679
X555000Y457679
X555000Y467679
X555000Y477679
X555000Y487679
X555000Y497679
X555000Y507679
X555000Y517679
X555000Y527679
X555000Y537679
X555000Y547679
X555000Y557679
X555000Y567679
X615000Y567679
X615000Y557679
X615000Y547679
X615000Y537679
X615000Y527679
X615000Y517679
X615000Y507679
X615000Y497679
X615000Y487679
X615000Y477679
X615000Y467679
X615000Y457679
X615000Y447679
X615000Y437679
X615000Y427679
X595000Y432679
X585000Y432679
X575000Y432679
X575000Y422679
X585000Y422679
X595000Y422679
T05
X635000Y427679
X665000Y427679
X680000Y427679
X680000Y417679
X695000Y407679
X705000Y407679
X715000Y407679
X725000Y407679
X740000Y417679
X740000Y427679
X725000Y437679
X715000Y437679
X705000Y437679
X695000Y437679
X705000Y452679
X715000Y452679
X720000Y467679
X745000Y452679
X755000Y442679
X775000Y452679
X785000Y452679
X815000Y452679
X795000Y467679
X785000Y482679
X785000Y492679
X802500Y497679
X810000Y502679
X810000Y492679
X827500Y502679
X835000Y507679
X835000Y497679
X860000Y482679
X880000Y492679
X890000Y482679
X905000Y482679
X905000Y472679
X920000Y472679
X920000Y482679
X920000Y492679
X905000Y492679
X895000Y507679
X880000Y522679
X895000Y537679
X920000Y522679
X930000Y527679
X940000Y527679
X940000Y517679
X930000Y517679
X975000Y472679
X985000Y472679
X920000Y422679
X935000Y412679
X942500Y407679
X935000Y402679
X920000Y407679
X890000Y407679
X880000Y417679
X870000Y417679
X860000Y417679
X860000Y407679
X870000Y407679
X880000Y387679
X865000Y372679
X855000Y387679
X845000Y387679
X835000Y372679
X835000Y357679
X845000Y357679
X840000Y350179
X835000Y337679
X820000Y332679
X820000Y322679
X835000Y322679
X865000Y322679
X875000Y317679
X885000Y317679
X895000Y317679
X905000Y317679
X915000Y317679
X925000Y317679
X935000Y317679
X945000Y317679
X955000Y317679
X965000Y317679
X965000Y347679
X955000Y347679
X945000Y347679
X935000Y347679
X925000Y347679
X915000Y347679
X905000Y347679
X895000Y347679
X885000Y347679
X875000Y347679
X865000Y337679
X810000Y347679
X795000Y347679
X790000Y332679
X790000Y322679
X750000Y352679
X750000Y362679
X740000Y372679
X730000Y377679
X720000Y387679
X705000Y387679
X695000Y387679
X695000Y372679
X705000Y372679
X720000Y357679
X730000Y367679
X705000Y352679
X740000Y387679
X770000Y387679
X770000Y372679
X795000Y377679
X810000Y377679
X755000Y412679
X675000Y457679
X690000Y467679
X690000Y477679
X675000Y487679
X665000Y487679
X665000Y502679
X655000Y517679
X655000Y527679
X670000Y522679
X680000Y522679
X680000Y532679
X680000Y542679
X665000Y542679
X645000Y542679
X680000Y567679
X665000Y572679
X680000Y577679
X680000Y587679
X670000Y587679
X655000Y587679
X645000Y587679
X625000Y587679
X605000Y587679
X575000Y587679
X565000Y587679
X570000Y580179
X570000Y552679
X580000Y552679
X580000Y537679
X570000Y537679
X575000Y522679
X585000Y522679
X580000Y507679
X570000Y507679
X545000Y519179
X545000Y549179
X635000Y502679
X635000Y487679
X635000Y472679
X645000Y457679
X655000Y457679
X665000Y472679
X727500Y502679
X735000Y507679
X735000Y497679
X755000Y492679
X765000Y492679
X755000Y507679
X735000Y522679
X725000Y522679
X700000Y527679
X700000Y547679
X700000Y562679
X700000Y582679
X645000Y572679
X755000Y552679
X765000Y572679
X775000Y572679
X785000Y552679
X785000Y537679
X785000Y527679
X810000Y517679
X835000Y527679
X845000Y527679
X855000Y527679
X855000Y517679
X855000Y542679
X855000Y552679
X835000Y552679
X827500Y547679
X835000Y542679
X810000Y547679
X785000Y507679
X765000Y467679
X750000Y467679
X845000Y452679
X845000Y442679
X860000Y432679
X870000Y432679
X880000Y432679
X890000Y432679
X890000Y422679
X905000Y442679
X905000Y452679
X890000Y462679
X880000Y462679
X870000Y462679
X860000Y462679
X665000Y397679
X635000Y397679
X645000Y352679
X590000Y347679
X560000Y347679
X535000Y342679
X525000Y342679
X470000Y347679
X460000Y347679
X450000Y347679
X440000Y347679
X430000Y347679
X420000Y347679
X410000Y347679
X400000Y347679
X390000Y347679
X380000Y347679
X370000Y337679
X370000Y322679
X380000Y317679
X390000Y317679
X400000Y317679
X410000Y317679
X420000Y317679
X430000Y317679
X440000Y317679
X450000Y317679
X460000Y317679
X470000Y317679
X565000Y287679
X575000Y287679
X570000Y280179
X605000Y287679
X625000Y287679
X645000Y287679
X655000Y287679
X670000Y287679
X680000Y287679
X680000Y277679
X665000Y272679
X680000Y267679
X700000Y262679
X700000Y247679
X680000Y242679
X665000Y242679
X680000Y232679
X680000Y222679
X670000Y222679
X655000Y227679
X655000Y217679
X665000Y202679
X665000Y187679
X675000Y187679
X690000Y177679
X690000Y167679
X675000Y157679
X655000Y157679
X645000Y157679
X635000Y172679
X635000Y187679
X635000Y202679
X665000Y172679
X705000Y152679
X715000Y152679
X715000Y137679
X705000Y137679
X695000Y137679
X680000Y127679
X680000Y117679
X665000Y127679
X635000Y127679
X635000Y97679
X665000Y97679
X695000Y107679
X705000Y107679
X715000Y107679
X725000Y107679
X740000Y117679
X740000Y127679
X725000Y137679
X745000Y152679
X755000Y142679
X775000Y152679
X785000Y152679
X815000Y152679
X795000Y167679
X785000Y182679
X785000Y192679
X802500Y197679
X810000Y202679
X810000Y192679
X827500Y202679
X835000Y207679
X835000Y197679
X860000Y182679
X880000Y192679
X890000Y182679
X905000Y182679
X905000Y172679
X920000Y172679
X920000Y182679
X920000Y192679
X905000Y192679
X895000Y207679
X880000Y222679
X895000Y237679
X920000Y222679
X930000Y227679
X940000Y227679
X940000Y217679
X930000Y217679
X975000Y172679
X985000Y172679
X920000Y122679
X935000Y112679
X942500Y107679
X935000Y102679
X920000Y107679
X890000Y107679
X880000Y117679
X870000Y117679
X860000Y117679
X860000Y107679
X870000Y107679
X880000Y87679
X865000Y72679
X855000Y87679
X845000Y87679
X835000Y72679
X835000Y57679
X845000Y57679
X840000Y50179
X835000Y37679
X820000Y32679
X820000Y22679
X835000Y22679
X865000Y22679
X875000Y17679
X885000Y17679
X895000Y17679
X905000Y17679
X915000Y17679
X925000Y17679
X935000Y17679
X945000Y17679
X955000Y17679
X965000Y17679
X965000Y47679
X955000Y47679
X945000Y47679
X935000Y47679
X925000Y47679
X915000Y47679
X905000Y47679
X895000Y47679
X885000Y47679
X875000Y47679
X865000Y37679
X810000Y47679
X795000Y47679
X790000Y32679
X790000Y22679
X750000Y52679
X750000Y62679
X740000Y72679
X730000Y77679
X720000Y87679
X705000Y87679
X695000Y87679
X695000Y72679
X705000Y72679
X720000Y57679
X730000Y67679
X705000Y52679
X740000Y87679
X770000Y87679
X770000Y72679
X795000Y77679
X810000Y77679
X755000Y112679
X845000Y142679
X845000Y152679
X860000Y162679
X870000Y162679
X880000Y162679
X890000Y162679
X905000Y152679
X905000Y142679
X890000Y132679
X880000Y132679
X870000Y132679
X860000Y132679
X890000Y122679
X765000Y167679
X750000Y167679
X720000Y167679
X735000Y197679
X727500Y202679
X735000Y207679
X735000Y222679
X725000Y222679
X700000Y227679
X645000Y242679
X645000Y272679
X700000Y282679
X755000Y252679
X765000Y272679
X775000Y272679
X785000Y252679
X785000Y237679
X785000Y227679
X810000Y217679
X835000Y227679
X845000Y227679
X855000Y227679
X855000Y217679
X855000Y242679
X855000Y252679
X835000Y252679
X827500Y247679
X835000Y242679
X810000Y247679
X785000Y207679
X765000Y192679
X755000Y192679
X755000Y207679
X585000Y222679
X575000Y222679
X570000Y207679
X580000Y207679
X545000Y219179
X570000Y237679
X580000Y237679
X580000Y252679
X570000Y252679
X545000Y249179
X445000Y227679
X435000Y227679
X435000Y217679
X445000Y217679
X425000Y222679
X400000Y237679
X385000Y222679
X400000Y207679
X410000Y192679
X410000Y182679
X410000Y172679
X395000Y182679
X385000Y192679
X365000Y182679
X365000Y162679
X375000Y162679
X385000Y162679
X395000Y162679
X410000Y152679
X410000Y142679
X395000Y132679
X385000Y132679
X375000Y132679
X365000Y132679
X365000Y117679
X375000Y117679
X385000Y117679
X395000Y122679
X395000Y107679
X375000Y107679
X365000Y107679
X360000Y87679
X350000Y87679
X340000Y72679
X340000Y57679
X350000Y57679
X345000Y50179
X340000Y37679
X325000Y32679
X325000Y22679
X340000Y22679
X370000Y22679
X380000Y17679
X390000Y17679
X400000Y17679
X410000Y17679
X420000Y17679
X430000Y17679
X440000Y17679
X450000Y17679
X460000Y17679
X470000Y17679
X470000Y47679
X460000Y47679
X450000Y47679
X440000Y47679
X430000Y47679
X420000Y47679
X410000Y47679
X400000Y47679
X390000Y47679
X380000Y47679
X370000Y37679
X315000Y47679
X300000Y47679
X295000Y32679
X295000Y22679
X255000Y52679
X255000Y62679
X245000Y72679
X235000Y77679
X225000Y87679
X210000Y87679
X200000Y87679
X200000Y72679
X210000Y72679
X225000Y57679
X235000Y67679
X210000Y52679
X245000Y87679
X230000Y107679
X220000Y107679
X210000Y107679
X200000Y107679
X185000Y117679
X185000Y127679
X170000Y127679
X140000Y127679
X140000Y97679
X170000Y97679
X200000Y137679
X210000Y137679
X220000Y137679
X230000Y137679
X220000Y152679
X210000Y152679
X195000Y167679
X195000Y177679
X180000Y187679
X170000Y187679
X170000Y202679
X160000Y217679
X160000Y227679
X175000Y222679
X185000Y222679
X185000Y232679
X185000Y242679
X170000Y242679
X150000Y242679
X185000Y267679
X170000Y272679
X185000Y277679
X185000Y287679
X175000Y287679
X160000Y287679
X150000Y287679
X130000Y287679
X110000Y287679
X80000Y287679
X70000Y287679
X75000Y280179
X75000Y252679
X85000Y252679
X85000Y237679
X75000Y237679
X80000Y222679
X90000Y222679
X85000Y207679
X75000Y207679
X50000Y219179
X50000Y249179
X140000Y202679
X140000Y187679
X140000Y172679
X150000Y157679
X160000Y157679
X180000Y157679
X170000Y172679
X225000Y167679
X250000Y152679
X260000Y142679
X280000Y152679
X290000Y152679
X300000Y167679
X290000Y182679
X290000Y192679
X307500Y197679
X315000Y202679
X315000Y192679
X332500Y202679
X340000Y207679
X340000Y197679
X360000Y217679
X360000Y227679
X350000Y227679
X340000Y227679
X315000Y217679
X290000Y227679
X290000Y237679
X290000Y252679
X315000Y247679
X332500Y247679
X340000Y252679
X340000Y242679
X360000Y242679
X360000Y252679
X280000Y272679
X270000Y272679
X260000Y252679
X240000Y222679
X230000Y222679
X240000Y207679
X232500Y202679
X240000Y197679
X260000Y192679
X270000Y192679
X260000Y207679
X290000Y207679
X270000Y167679
X255000Y167679
X245000Y127679
X245000Y117679
X260000Y112679
X275000Y87679
X275000Y72679
X300000Y77679
X315000Y77679
X370000Y72679
X385000Y87679
X425000Y107679
X440000Y112679
X447500Y107679
X440000Y102679
X425000Y122679
X425000Y172679
X425000Y182679
X425000Y192679
X480000Y172679
X490000Y172679
X350000Y152679
X350000Y142679
X320000Y152679
X205000Y227679
X205000Y247679
X205000Y262679
X205000Y282679
X150000Y272679
X40000Y342679
X30000Y342679
X65000Y347679
X95000Y347679
X150000Y352679
X200000Y372679
X210000Y372679
X210000Y387679
X200000Y387679
X225000Y387679
X235000Y377679
X245000Y372679
X235000Y367679
X225000Y357679
X210000Y352679
X255000Y352679
X255000Y362679
X275000Y372679
X275000Y387679
X300000Y377679
X315000Y377679
X340000Y372679
X340000Y357679
X350000Y357679
X345000Y350179
X340000Y337679
X325000Y332679
X325000Y322679
X340000Y322679
X315000Y347679
X300000Y347679
X295000Y332679
X295000Y322679
X370000Y372679
X360000Y387679
X350000Y387679
X365000Y407679
X375000Y407679
X375000Y417679
X365000Y417679
X365000Y432679
X375000Y432679
X385000Y432679
X395000Y432679
X395000Y422679
X385000Y417679
X395000Y407679
X385000Y387679
X425000Y407679
X440000Y412679
X447500Y407679
X440000Y402679
X425000Y422679
X410000Y442679
X410000Y452679
X395000Y462679
X385000Y462679
X375000Y462679
X365000Y462679
X350000Y452679
X350000Y442679
X320000Y452679
X300000Y467679
X290000Y482679
X290000Y492679
X307500Y497679
X315000Y502679
X315000Y492679
X332500Y502679
X340000Y507679
X340000Y497679
X365000Y482679
X385000Y492679
X395000Y482679
X410000Y482679
X410000Y472679
X425000Y472679
X425000Y482679
X425000Y492679
X410000Y492679
X400000Y507679
X385000Y522679
X400000Y537679
X425000Y522679
X435000Y527679
X445000Y527679
X445000Y517679
X435000Y517679
X480000Y472679
X490000Y472679
X360000Y517679
X360000Y527679
X350000Y527679
X340000Y527679
X340000Y542679
X332500Y547679
X340000Y552679
X360000Y552679
X360000Y542679
X315000Y547679
X290000Y552679
X290000Y537679
X290000Y527679
X315000Y517679
X290000Y507679
X270000Y492679
X260000Y492679
X260000Y507679
X240000Y507679
X232500Y502679
X240000Y497679
X240000Y522679
X230000Y522679
X205000Y527679
X185000Y532679
X185000Y542679
X170000Y542679
X160000Y527679
X160000Y517679
X175000Y522679
X185000Y522679
X170000Y502679
X170000Y487679
X180000Y487679
X195000Y477679
X195000Y467679
X180000Y457679
X160000Y457679
X150000Y457679
X140000Y472679
X140000Y487679
X140000Y502679
X170000Y472679
X210000Y452679
X220000Y452679
X220000Y437679
X210000Y437679
X200000Y437679
X185000Y427679
X185000Y417679
X170000Y427679
X140000Y427679
X140000Y397679
X170000Y397679
X200000Y407679
X210000Y407679
X220000Y407679
X230000Y407679
X245000Y417679
X245000Y427679
X230000Y437679
X250000Y452679
X260000Y442679
X280000Y452679
X290000Y452679
X270000Y467679
X255000Y467679
X225000Y467679
X260000Y412679
X245000Y387679
X85000Y507679
X75000Y507679
X80000Y522679
X90000Y522679
X85000Y537679
X75000Y537679
X75000Y552679
X85000Y552679
X75000Y580179
X70000Y587679
X80000Y587679
X110000Y587679
X130000Y587679
X150000Y587679
X160000Y587679
X175000Y587679
X185000Y587679
X185000Y577679
X170000Y572679
X185000Y567679
X205000Y562679
X205000Y547679
X150000Y542679
X150000Y572679
X205000Y582679
X260000Y552679
X270000Y572679
X280000Y572679
X50000Y549179
X50000Y519179
X150000Y52679
X95000Y47679
X65000Y47679
X40000Y42679
X30000Y42679
X525000Y42679
X535000Y42679
X560000Y47679
X590000Y47679
X645000Y52679
T06
X641930Y16553
X631930Y16553
X621930Y16553
X611930Y16553
X601930Y16553
X591930Y16553
X490000Y215592
X490000Y229371
X490000Y250592
X490000Y264371
X591930Y316553
X601930Y316553
X611930Y316553
X621930Y316553
X631930Y316553
X641930Y316553
X490000Y515592
X490000Y529371
X490000Y550592
X490000Y564371
X146930Y316553
X136930Y316553
X126930Y316553
X116930Y316553
X106930Y316553
X96930Y316553
X96930Y16553
X106930Y16553
X116930Y16553
X126930Y16553
X136930Y16553
X146930Y16553
X985000Y215592
X985000Y229371
X985000Y250592
X985000Y264371
X985000Y515592
X985000Y529371
X985000Y550592
X985000Y564371
T07
X950000Y562679
X950000Y552679
X950000Y527679
X950000Y517679
X965000Y437679
X965000Y427679
X965000Y417679
X762800Y336579
X737200Y336579
X737200Y318779
X762800Y318779
X950000Y262679
X950000Y252679
X950000Y227679
X950000Y217679
X965000Y137679
X965000Y127679
X965000Y117679
X762800Y36579
X737200Y36579
X737200Y18779
X762800Y18779
X530000Y117679
X530000Y127679
X529000Y147679
X530000Y157679
X529000Y167679
X530000Y177679
X530000Y202679
X530000Y212679
X530000Y222679
X530000Y232679
X530000Y242679
X530000Y252679
X455000Y252679
X455000Y262679
X455000Y227679
X455000Y217679
X470000Y137679
X470000Y127679
X470000Y117679
X267800Y36579
X242200Y36579
X242200Y18779
X267800Y18779
X35000Y117679
X35000Y127679
X34000Y147679
X35000Y157679
X34000Y167679
X35000Y177679
X35000Y202679
X35000Y212679
X35000Y222679
X35000Y232679
X35000Y242679
X35000Y252679
X242200Y318779
X267800Y318779
X267800Y336579
X242200Y336579
X35000Y417679
X35000Y427679
X34000Y447679
X35000Y457679
X34000Y467679
X35000Y477679
X35000Y502679
X35000Y512679
X35000Y522679
X35000Y532679
X35000Y542679
X35000Y552679
X455000Y552679
X455000Y562679
X455000Y527679
X455000Y517679
X530000Y522679
X530000Y512679
X530000Y502679
X530000Y477679
X529000Y467679
X530000Y457679
X529000Y447679
X530000Y427679
X530000Y417679
X470000Y417679
X470000Y427679
X470000Y437679
X530000Y532679
X530000Y542679
X530000Y552679
T08
X704711Y322389
X704711Y22389
X209711Y22389
X209711Y322389
T09
X470000Y252679
X470000Y192679
X470000Y492679
X470000Y552679
X965000Y552679
X965000Y492679
X965000Y252679
X965000Y192679
T10
X983000Y152679
X983000Y102679
X983000Y402679
X983000Y452679
X488000Y452679
X488000Y402679
X488000Y152679
X488000Y102679
T11
X35000Y17679
X35000Y287679
X35000Y317679
X35000Y587679
X500000Y587679
X530000Y587679
X530000Y317679
X500000Y317679
X500000Y287679
X530000Y287679
X530000Y17679
X500000Y17679
X995000Y17679
X995000Y287679
X995000Y317679
X995000Y587679
T12
X547323Y386576
X533937Y367679
X547323Y86576
X533937Y67679
X47323Y86576
X33937Y67679
X33937Y367679
X47323Y386576
T13
X58543Y367679
X58543Y67679
X558543Y67679
X558543Y367679
M30
