G75*
%MOIN*%
%OFA0B0*%
%FSLAX25Y25*%
%IPPOS*%
%LPD*%
%AMOC8*
5,1,8,0,0,1.08239X$1,22.5*
%
%ADD10C,0.11800*%
%ADD11OC8,0.06000*%
%ADD12C,0.08300*%
%ADD13OC8,0.08300*%
%ADD14C,0.09650*%
%ADD15C,0.13461*%
%ADD16C,0.06000*%
%ADD17C,0.06800*%
%ADD18C,0.08200*%
%ADD19C,0.06000*%
%ADD20C,0.08400*%
%ADD21C,0.05950*%
%ADD22C,0.05950*%
%ADD23OC8,0.07400*%
%ADD24R,0.08200X0.08200*%
%ADD25C,0.09400*%
%ADD26C,0.03162*%
%ADD27C,0.06737*%
%ADD28C,0.03753*%
%ADD29C,0.04934*%
%ADD30C,0.17398*%
%ADD31C,0.15824*%
%ADD32C,0.04369*%
D10*
X0035000Y0017679D03*
X0035000Y0287679D03*
X0035000Y0317679D03*
X0035000Y0587679D03*
X0500000Y0587679D03*
X0530000Y0587679D03*
X0530000Y0317679D03*
X0500000Y0317679D03*
X0500000Y0287679D03*
X0530000Y0287679D03*
X0530000Y0017679D03*
X0500000Y0017679D03*
X0995000Y0017679D03*
X0995000Y0287679D03*
X0995000Y0317679D03*
X0995000Y0587679D03*
D11*
X0940000Y0527679D03*
X0930000Y0527679D03*
X0930000Y0517679D03*
X0940000Y0517679D03*
X0920000Y0522679D03*
X0895000Y0537679D03*
X0880000Y0522679D03*
X0895000Y0507679D03*
X0880000Y0492679D03*
X0890000Y0482679D03*
X0860000Y0482679D03*
X0845000Y0452679D03*
X0845000Y0442679D03*
X0815000Y0452679D03*
X0785000Y0452679D03*
X0775000Y0452679D03*
X0755000Y0442679D03*
X0745000Y0452679D03*
X0750000Y0467679D03*
X0765000Y0467679D03*
X0785000Y0482679D03*
X0785000Y0492679D03*
X0785000Y0507679D03*
X0765000Y0492679D03*
X0755000Y0492679D03*
X0755000Y0507679D03*
X0735000Y0522679D03*
X0725000Y0522679D03*
X0755000Y0552679D03*
X0765000Y0572679D03*
X0775000Y0572679D03*
X0785000Y0552679D03*
X0785000Y0537679D03*
X0785000Y0527679D03*
X0810000Y0517679D03*
X0835000Y0527679D03*
X0845000Y0527679D03*
X0855000Y0527679D03*
X0855000Y0517679D03*
X0855000Y0542679D03*
X0855000Y0552679D03*
X0810000Y0547679D03*
X0920000Y0492679D03*
X0920000Y0482679D03*
X0920000Y0472679D03*
X0905000Y0452679D03*
X0905000Y0442679D03*
X0890000Y0422679D03*
X0880000Y0417679D03*
X0870000Y0417679D03*
X0860000Y0417679D03*
X0860000Y0407679D03*
X0870000Y0407679D03*
X0890000Y0407679D03*
X0880000Y0387679D03*
X0865000Y0372679D03*
X0855000Y0387679D03*
X0845000Y0387679D03*
X0835000Y0372679D03*
X0835000Y0357679D03*
X0845000Y0357679D03*
X0840000Y0350179D03*
X0835000Y0337679D03*
X0835000Y0322679D03*
X0865000Y0322679D03*
X0875000Y0317679D03*
X0885000Y0317679D03*
X0895000Y0317679D03*
X0905000Y0317679D03*
X0915000Y0317679D03*
X0925000Y0317679D03*
X0935000Y0317679D03*
X0945000Y0317679D03*
X0955000Y0317679D03*
X0965000Y0317679D03*
X0965000Y0347679D03*
X0955000Y0347679D03*
X0945000Y0347679D03*
X0935000Y0347679D03*
X0925000Y0347679D03*
X0915000Y0347679D03*
X0905000Y0347679D03*
X0895000Y0347679D03*
X0885000Y0347679D03*
X0875000Y0347679D03*
X0865000Y0337679D03*
X0810000Y0347679D03*
X0795000Y0347679D03*
X0770000Y0372679D03*
X0770000Y0387679D03*
X0795000Y0377679D03*
X0810000Y0377679D03*
X0755000Y0412679D03*
X0740000Y0417679D03*
X0740000Y0427679D03*
X0715000Y0452679D03*
X0705000Y0452679D03*
X0690000Y0467679D03*
X0690000Y0477679D03*
X0675000Y0487679D03*
X0665000Y0487679D03*
X0665000Y0502679D03*
X0655000Y0517679D03*
X0655000Y0527679D03*
X0670000Y0522679D03*
X0680000Y0522679D03*
X0680000Y0532679D03*
X0680000Y0542679D03*
X0680000Y0567679D03*
X0680000Y0577679D03*
X0680000Y0587679D03*
X0670000Y0587679D03*
X0655000Y0587679D03*
X0645000Y0587679D03*
X0580000Y0552679D03*
X0570000Y0552679D03*
X0570000Y0537679D03*
X0580000Y0537679D03*
X0575000Y0522679D03*
X0585000Y0522679D03*
X0580000Y0507679D03*
X0570000Y0507679D03*
X0545000Y0519179D03*
X0545000Y0549179D03*
X0635000Y0502679D03*
X0635000Y0487679D03*
X0635000Y0472679D03*
X0645000Y0457679D03*
X0655000Y0457679D03*
X0675000Y0457679D03*
X0665000Y0472679D03*
X0720000Y0467679D03*
X0680000Y0427679D03*
X0680000Y0417679D03*
X0665000Y0427679D03*
X0635000Y0427679D03*
X0635000Y0397679D03*
X0665000Y0397679D03*
X0695000Y0387679D03*
X0705000Y0387679D03*
X0720000Y0387679D03*
X0730000Y0377679D03*
X0740000Y0372679D03*
X0730000Y0367679D03*
X0720000Y0357679D03*
X0705000Y0352679D03*
X0705000Y0372679D03*
X0695000Y0372679D03*
X0740000Y0387679D03*
X0645000Y0352679D03*
X0590000Y0347679D03*
X0560000Y0347679D03*
X0470000Y0347679D03*
X0460000Y0347679D03*
X0450000Y0347679D03*
X0440000Y0347679D03*
X0430000Y0347679D03*
X0420000Y0347679D03*
X0410000Y0347679D03*
X0400000Y0347679D03*
X0390000Y0347679D03*
X0380000Y0347679D03*
X0370000Y0337679D03*
X0370000Y0322679D03*
X0380000Y0317679D03*
X0390000Y0317679D03*
X0400000Y0317679D03*
X0410000Y0317679D03*
X0420000Y0317679D03*
X0430000Y0317679D03*
X0440000Y0317679D03*
X0450000Y0317679D03*
X0460000Y0317679D03*
X0470000Y0317679D03*
X0545000Y0249179D03*
X0570000Y0252679D03*
X0580000Y0252679D03*
X0580000Y0237679D03*
X0570000Y0237679D03*
X0575000Y0222679D03*
X0585000Y0222679D03*
X0580000Y0207679D03*
X0570000Y0207679D03*
X0545000Y0219179D03*
X0490000Y0172679D03*
X0480000Y0172679D03*
X0425000Y0172679D03*
X0425000Y0182679D03*
X0425000Y0192679D03*
X0400000Y0207679D03*
X0385000Y0222679D03*
X0400000Y0237679D03*
X0425000Y0222679D03*
X0435000Y0227679D03*
X0445000Y0227679D03*
X0445000Y0217679D03*
X0435000Y0217679D03*
X0385000Y0192679D03*
X0395000Y0182679D03*
X0365000Y0182679D03*
X0350000Y0152679D03*
X0350000Y0142679D03*
X0320000Y0152679D03*
X0300000Y0167679D03*
X0290000Y0182679D03*
X0290000Y0192679D03*
X0290000Y0207679D03*
X0270000Y0192679D03*
X0260000Y0192679D03*
X0260000Y0207679D03*
X0240000Y0222679D03*
X0230000Y0222679D03*
X0260000Y0252679D03*
X0270000Y0272679D03*
X0280000Y0272679D03*
X0290000Y0252679D03*
X0290000Y0237679D03*
X0290000Y0227679D03*
X0315000Y0217679D03*
X0340000Y0227679D03*
X0350000Y0227679D03*
X0360000Y0227679D03*
X0360000Y0217679D03*
X0360000Y0242679D03*
X0360000Y0252679D03*
X0315000Y0247679D03*
X0340000Y0322679D03*
X0340000Y0337679D03*
X0345000Y0350179D03*
X0340000Y0357679D03*
X0350000Y0357679D03*
X0340000Y0372679D03*
X0350000Y0387679D03*
X0360000Y0387679D03*
X0370000Y0372679D03*
X0385000Y0387679D03*
X0375000Y0407679D03*
X0365000Y0407679D03*
X0365000Y0417679D03*
X0375000Y0417679D03*
X0385000Y0417679D03*
X0395000Y0422679D03*
X0395000Y0407679D03*
X0425000Y0407679D03*
X0440000Y0412679D03*
X0447500Y0407679D03*
X0440000Y0402679D03*
X0425000Y0422679D03*
X0410000Y0442679D03*
X0410000Y0452679D03*
X0425000Y0472679D03*
X0425000Y0482679D03*
X0425000Y0492679D03*
X0400000Y0507679D03*
X0385000Y0522679D03*
X0400000Y0537679D03*
X0425000Y0522679D03*
X0435000Y0527679D03*
X0445000Y0527679D03*
X0445000Y0517679D03*
X0435000Y0517679D03*
X0385000Y0492679D03*
X0395000Y0482679D03*
X0365000Y0482679D03*
X0350000Y0452679D03*
X0350000Y0442679D03*
X0320000Y0452679D03*
X0300000Y0467679D03*
X0290000Y0482679D03*
X0290000Y0492679D03*
X0290000Y0507679D03*
X0270000Y0492679D03*
X0260000Y0492679D03*
X0260000Y0507679D03*
X0240000Y0522679D03*
X0230000Y0522679D03*
X0260000Y0552679D03*
X0270000Y0572679D03*
X0280000Y0572679D03*
X0290000Y0552679D03*
X0290000Y0537679D03*
X0290000Y0527679D03*
X0315000Y0517679D03*
X0340000Y0527679D03*
X0350000Y0527679D03*
X0360000Y0527679D03*
X0360000Y0517679D03*
X0360000Y0542679D03*
X0360000Y0552679D03*
X0315000Y0547679D03*
X0270000Y0467679D03*
X0255000Y0467679D03*
X0250000Y0452679D03*
X0260000Y0442679D03*
X0280000Y0452679D03*
X0290000Y0452679D03*
X0245000Y0427679D03*
X0245000Y0417679D03*
X0260000Y0412679D03*
X0245000Y0387679D03*
X0235000Y0377679D03*
X0245000Y0372679D03*
X0235000Y0367679D03*
X0225000Y0357679D03*
X0210000Y0352679D03*
X0210000Y0372679D03*
X0200000Y0372679D03*
X0200000Y0387679D03*
X0210000Y0387679D03*
X0225000Y0387679D03*
X0185000Y0417679D03*
X0185000Y0427679D03*
X0170000Y0427679D03*
X0140000Y0427679D03*
X0140000Y0397679D03*
X0170000Y0397679D03*
X0150000Y0352679D03*
X0095000Y0347679D03*
X0065000Y0347679D03*
X0150000Y0287679D03*
X0160000Y0287679D03*
X0175000Y0287679D03*
X0185000Y0287679D03*
X0185000Y0277679D03*
X0185000Y0267679D03*
X0185000Y0242679D03*
X0185000Y0232679D03*
X0185000Y0222679D03*
X0175000Y0222679D03*
X0160000Y0227679D03*
X0160000Y0217679D03*
X0170000Y0202679D03*
X0170000Y0187679D03*
X0180000Y0187679D03*
X0195000Y0177679D03*
X0195000Y0167679D03*
X0180000Y0157679D03*
X0160000Y0157679D03*
X0150000Y0157679D03*
X0140000Y0172679D03*
X0140000Y0187679D03*
X0140000Y0202679D03*
X0170000Y0172679D03*
X0210000Y0152679D03*
X0220000Y0152679D03*
X0225000Y0167679D03*
X0250000Y0152679D03*
X0260000Y0142679D03*
X0280000Y0152679D03*
X0290000Y0152679D03*
X0270000Y0167679D03*
X0255000Y0167679D03*
X0245000Y0127679D03*
X0245000Y0117679D03*
X0260000Y0112679D03*
X0245000Y0087679D03*
X0235000Y0077679D03*
X0245000Y0072679D03*
X0235000Y0067679D03*
X0225000Y0057679D03*
X0210000Y0052679D03*
X0210000Y0072679D03*
X0200000Y0072679D03*
X0200000Y0087679D03*
X0210000Y0087679D03*
X0225000Y0087679D03*
X0185000Y0117679D03*
X0185000Y0127679D03*
X0170000Y0127679D03*
X0140000Y0127679D03*
X0140000Y0097679D03*
X0170000Y0097679D03*
X0150000Y0052679D03*
X0095000Y0047679D03*
X0065000Y0047679D03*
X0275000Y0072679D03*
X0275000Y0087679D03*
X0300000Y0077679D03*
X0315000Y0077679D03*
X0340000Y0072679D03*
X0340000Y0057679D03*
X0350000Y0057679D03*
X0345000Y0050179D03*
X0340000Y0037679D03*
X0340000Y0022679D03*
X0370000Y0022679D03*
X0380000Y0017679D03*
X0390000Y0017679D03*
X0400000Y0017679D03*
X0410000Y0017679D03*
X0420000Y0017679D03*
X0430000Y0017679D03*
X0440000Y0017679D03*
X0450000Y0017679D03*
X0460000Y0017679D03*
X0470000Y0017679D03*
X0470000Y0047679D03*
X0460000Y0047679D03*
X0450000Y0047679D03*
X0440000Y0047679D03*
X0430000Y0047679D03*
X0420000Y0047679D03*
X0410000Y0047679D03*
X0400000Y0047679D03*
X0390000Y0047679D03*
X0380000Y0047679D03*
X0370000Y0037679D03*
X0315000Y0047679D03*
X0300000Y0047679D03*
X0350000Y0087679D03*
X0360000Y0087679D03*
X0370000Y0072679D03*
X0385000Y0087679D03*
X0375000Y0107679D03*
X0365000Y0107679D03*
X0365000Y0117679D03*
X0375000Y0117679D03*
X0385000Y0117679D03*
X0395000Y0122679D03*
X0395000Y0107679D03*
X0425000Y0107679D03*
X0440000Y0112679D03*
X0447500Y0107679D03*
X0440000Y0102679D03*
X0425000Y0122679D03*
X0410000Y0142679D03*
X0410000Y0152679D03*
X0560000Y0047679D03*
X0590000Y0047679D03*
X0645000Y0052679D03*
X0695000Y0072679D03*
X0705000Y0072679D03*
X0705000Y0087679D03*
X0695000Y0087679D03*
X0720000Y0087679D03*
X0730000Y0077679D03*
X0740000Y0072679D03*
X0730000Y0067679D03*
X0720000Y0057679D03*
X0705000Y0052679D03*
X0740000Y0087679D03*
X0770000Y0087679D03*
X0770000Y0072679D03*
X0795000Y0077679D03*
X0810000Y0077679D03*
X0835000Y0072679D03*
X0835000Y0057679D03*
X0845000Y0057679D03*
X0840000Y0050179D03*
X0835000Y0037679D03*
X0835000Y0022679D03*
X0865000Y0022679D03*
X0875000Y0017679D03*
X0885000Y0017679D03*
X0895000Y0017679D03*
X0905000Y0017679D03*
X0915000Y0017679D03*
X0925000Y0017679D03*
X0935000Y0017679D03*
X0945000Y0017679D03*
X0955000Y0017679D03*
X0965000Y0017679D03*
X0965000Y0047679D03*
X0955000Y0047679D03*
X0945000Y0047679D03*
X0935000Y0047679D03*
X0925000Y0047679D03*
X0915000Y0047679D03*
X0905000Y0047679D03*
X0895000Y0047679D03*
X0885000Y0047679D03*
X0875000Y0047679D03*
X0865000Y0037679D03*
X0810000Y0047679D03*
X0795000Y0047679D03*
X0845000Y0087679D03*
X0855000Y0087679D03*
X0865000Y0072679D03*
X0880000Y0087679D03*
X0870000Y0107679D03*
X0860000Y0107679D03*
X0860000Y0117679D03*
X0870000Y0117679D03*
X0880000Y0117679D03*
X0890000Y0122679D03*
X0890000Y0107679D03*
X0920000Y0107679D03*
X0935000Y0112679D03*
X0942500Y0107679D03*
X0935000Y0102679D03*
X0920000Y0122679D03*
X0905000Y0142679D03*
X0905000Y0152679D03*
X0920000Y0172679D03*
X0920000Y0182679D03*
X0920000Y0192679D03*
X0895000Y0207679D03*
X0880000Y0222679D03*
X0895000Y0237679D03*
X0920000Y0222679D03*
X0930000Y0227679D03*
X0940000Y0227679D03*
X0940000Y0217679D03*
X0930000Y0217679D03*
X0880000Y0192679D03*
X0890000Y0182679D03*
X0860000Y0182679D03*
X0845000Y0152679D03*
X0845000Y0142679D03*
X0815000Y0152679D03*
X0785000Y0152679D03*
X0775000Y0152679D03*
X0755000Y0142679D03*
X0745000Y0152679D03*
X0750000Y0167679D03*
X0765000Y0167679D03*
X0785000Y0182679D03*
X0785000Y0192679D03*
X0785000Y0207679D03*
X0765000Y0192679D03*
X0755000Y0192679D03*
X0755000Y0207679D03*
X0735000Y0222679D03*
X0725000Y0222679D03*
X0755000Y0252679D03*
X0765000Y0272679D03*
X0775000Y0272679D03*
X0785000Y0252679D03*
X0785000Y0237679D03*
X0785000Y0227679D03*
X0810000Y0217679D03*
X0835000Y0227679D03*
X0845000Y0227679D03*
X0855000Y0227679D03*
X0855000Y0217679D03*
X0855000Y0242679D03*
X0855000Y0252679D03*
X0810000Y0247679D03*
X0795000Y0167679D03*
X0740000Y0127679D03*
X0740000Y0117679D03*
X0755000Y0112679D03*
X0715000Y0152679D03*
X0705000Y0152679D03*
X0690000Y0167679D03*
X0690000Y0177679D03*
X0675000Y0187679D03*
X0665000Y0187679D03*
X0665000Y0202679D03*
X0655000Y0217679D03*
X0655000Y0227679D03*
X0670000Y0222679D03*
X0680000Y0222679D03*
X0680000Y0232679D03*
X0680000Y0242679D03*
X0680000Y0267679D03*
X0680000Y0277679D03*
X0680000Y0287679D03*
X0670000Y0287679D03*
X0655000Y0287679D03*
X0645000Y0287679D03*
X0635000Y0202679D03*
X0635000Y0187679D03*
X0635000Y0172679D03*
X0645000Y0157679D03*
X0655000Y0157679D03*
X0675000Y0157679D03*
X0665000Y0172679D03*
X0720000Y0167679D03*
X0680000Y0127679D03*
X0680000Y0117679D03*
X0665000Y0127679D03*
X0635000Y0127679D03*
X0635000Y0097679D03*
X0665000Y0097679D03*
X0975000Y0172679D03*
X0985000Y0172679D03*
X0935000Y0402679D03*
X0942500Y0407679D03*
X0935000Y0412679D03*
X0920000Y0407679D03*
X0920000Y0422679D03*
X0975000Y0472679D03*
X0985000Y0472679D03*
X0795000Y0467679D03*
X0490000Y0472679D03*
X0480000Y0472679D03*
X0315000Y0377679D03*
X0300000Y0377679D03*
X0275000Y0372679D03*
X0275000Y0387679D03*
X0300000Y0347679D03*
X0315000Y0347679D03*
X0220000Y0452679D03*
X0210000Y0452679D03*
X0195000Y0467679D03*
X0195000Y0477679D03*
X0180000Y0487679D03*
X0170000Y0487679D03*
X0170000Y0502679D03*
X0160000Y0517679D03*
X0160000Y0527679D03*
X0175000Y0522679D03*
X0185000Y0522679D03*
X0185000Y0532679D03*
X0185000Y0542679D03*
X0185000Y0567679D03*
X0185000Y0577679D03*
X0185000Y0587679D03*
X0175000Y0587679D03*
X0160000Y0587679D03*
X0150000Y0587679D03*
X0085000Y0552679D03*
X0075000Y0552679D03*
X0075000Y0537679D03*
X0085000Y0537679D03*
X0080000Y0522679D03*
X0090000Y0522679D03*
X0085000Y0507679D03*
X0075000Y0507679D03*
X0050000Y0519179D03*
X0050000Y0549179D03*
X0140000Y0502679D03*
X0140000Y0487679D03*
X0140000Y0472679D03*
X0150000Y0457679D03*
X0160000Y0457679D03*
X0180000Y0457679D03*
X0170000Y0472679D03*
X0225000Y0467679D03*
X0085000Y0252679D03*
X0075000Y0252679D03*
X0075000Y0237679D03*
X0085000Y0237679D03*
X0080000Y0222679D03*
X0090000Y0222679D03*
X0085000Y0207679D03*
X0075000Y0207679D03*
X0050000Y0219179D03*
X0050000Y0249179D03*
D12*
X0130000Y0287679D03*
X0170000Y0272679D03*
X0205000Y0282679D03*
X0205000Y0247679D03*
X0150000Y0242679D03*
X0150000Y0542679D03*
X0170000Y0572679D03*
X0205000Y0582679D03*
X0205000Y0547679D03*
X0130000Y0587679D03*
X0625000Y0587679D03*
X0665000Y0572679D03*
X0700000Y0582679D03*
X0700000Y0547679D03*
X0645000Y0542679D03*
X0625000Y0287679D03*
X0665000Y0272679D03*
X0700000Y0282679D03*
X0700000Y0247679D03*
X0645000Y0242679D03*
D13*
X0665000Y0242679D03*
X0700000Y0227679D03*
X0700000Y0262679D03*
X0645000Y0272679D03*
X0605000Y0287679D03*
X0700000Y0527679D03*
X0665000Y0542679D03*
X0700000Y0562679D03*
X0645000Y0572679D03*
X0605000Y0587679D03*
X0205000Y0562679D03*
X0170000Y0542679D03*
X0205000Y0527679D03*
X0150000Y0572679D03*
X0110000Y0587679D03*
X0110000Y0287679D03*
X0150000Y0272679D03*
X0170000Y0242679D03*
X0205000Y0227679D03*
X0205000Y0262679D03*
D14*
X0470000Y0257104D02*
X0470000Y0248254D01*
X0470000Y0197104D02*
X0470000Y0188254D01*
X0470000Y0488254D02*
X0470000Y0497104D01*
X0470000Y0548254D02*
X0470000Y0557104D01*
X0965000Y0557104D02*
X0965000Y0548254D01*
X0965000Y0497104D02*
X0965000Y0488254D01*
X0965000Y0257104D02*
X0965000Y0248254D01*
X0965000Y0197104D02*
X0965000Y0188254D01*
D15*
X0983000Y0152679D03*
X0983000Y0102679D03*
X0983000Y0402679D03*
X0983000Y0452679D03*
X0488000Y0452679D03*
X0488000Y0402679D03*
X0488000Y0152679D03*
X0488000Y0102679D03*
D16*
X0395000Y0132679D03*
X0385000Y0132679D03*
X0375000Y0132679D03*
X0365000Y0132679D03*
X0365000Y0162679D03*
X0375000Y0162679D03*
X0385000Y0162679D03*
X0395000Y0162679D03*
X0230000Y0137679D03*
X0220000Y0137679D03*
X0210000Y0137679D03*
X0200000Y0137679D03*
X0200000Y0107679D03*
X0210000Y0107679D03*
X0220000Y0107679D03*
X0230000Y0107679D03*
X0255000Y0062679D03*
X0255000Y0052679D03*
X0295000Y0032679D03*
X0295000Y0022679D03*
X0325000Y0022679D03*
X0325000Y0032679D03*
X0525000Y0042679D03*
X0535000Y0042679D03*
X0695000Y0107679D03*
X0705000Y0107679D03*
X0715000Y0107679D03*
X0725000Y0107679D03*
X0725000Y0137679D03*
X0715000Y0137679D03*
X0705000Y0137679D03*
X0695000Y0137679D03*
X0750000Y0062679D03*
X0750000Y0052679D03*
X0790000Y0032679D03*
X0790000Y0022679D03*
X0820000Y0022679D03*
X0820000Y0032679D03*
X0860000Y0132679D03*
X0870000Y0132679D03*
X0880000Y0132679D03*
X0890000Y0132679D03*
X0890000Y0162679D03*
X0880000Y0162679D03*
X0870000Y0162679D03*
X0860000Y0162679D03*
X0820000Y0322679D03*
X0820000Y0332679D03*
X0790000Y0332679D03*
X0790000Y0322679D03*
X0750000Y0352679D03*
X0750000Y0362679D03*
X0725000Y0407679D03*
X0715000Y0407679D03*
X0705000Y0407679D03*
X0695000Y0407679D03*
X0695000Y0437679D03*
X0705000Y0437679D03*
X0715000Y0437679D03*
X0725000Y0437679D03*
X0860000Y0432679D03*
X0870000Y0432679D03*
X0880000Y0432679D03*
X0890000Y0432679D03*
X0890000Y0462679D03*
X0880000Y0462679D03*
X0870000Y0462679D03*
X0860000Y0462679D03*
X0535000Y0342679D03*
X0525000Y0342679D03*
X0395000Y0432679D03*
X0385000Y0432679D03*
X0375000Y0432679D03*
X0365000Y0432679D03*
X0365000Y0462679D03*
X0375000Y0462679D03*
X0385000Y0462679D03*
X0395000Y0462679D03*
X0230000Y0437679D03*
X0220000Y0437679D03*
X0210000Y0437679D03*
X0200000Y0437679D03*
X0200000Y0407679D03*
X0210000Y0407679D03*
X0220000Y0407679D03*
X0230000Y0407679D03*
X0255000Y0362679D03*
X0255000Y0352679D03*
X0295000Y0332679D03*
X0295000Y0322679D03*
X0325000Y0322679D03*
X0325000Y0332679D03*
X0040000Y0342679D03*
X0030000Y0342679D03*
X0030000Y0042679D03*
X0040000Y0042679D03*
D17*
X0037000Y0147679D02*
X0031000Y0147679D01*
X0032000Y0157679D02*
X0038000Y0157679D01*
X0037000Y0167679D02*
X0031000Y0167679D01*
X0032000Y0177679D02*
X0038000Y0177679D01*
X0467000Y0137679D02*
X0473000Y0137679D01*
X0473000Y0127679D02*
X0467000Y0127679D01*
X0467000Y0117679D02*
X0473000Y0117679D01*
X0526000Y0147679D02*
X0532000Y0147679D01*
X0533000Y0157679D02*
X0527000Y0157679D01*
X0526000Y0167679D02*
X0532000Y0167679D01*
X0533000Y0177679D02*
X0527000Y0177679D01*
X0473000Y0417679D02*
X0467000Y0417679D01*
X0467000Y0427679D02*
X0473000Y0427679D01*
X0473000Y0437679D02*
X0467000Y0437679D01*
X0526000Y0447679D02*
X0532000Y0447679D01*
X0533000Y0457679D02*
X0527000Y0457679D01*
X0526000Y0467679D02*
X0532000Y0467679D01*
X0533000Y0477679D02*
X0527000Y0477679D01*
X0962000Y0437679D02*
X0968000Y0437679D01*
X0968000Y0427679D02*
X0962000Y0427679D01*
X0962000Y0417679D02*
X0968000Y0417679D01*
X0968000Y0137679D02*
X0962000Y0137679D01*
X0962000Y0127679D02*
X0968000Y0127679D01*
X0968000Y0117679D02*
X0962000Y0117679D01*
X0037000Y0447679D02*
X0031000Y0447679D01*
X0032000Y0457679D02*
X0038000Y0457679D01*
X0037000Y0467679D02*
X0031000Y0467679D01*
X0032000Y0477679D02*
X0038000Y0477679D01*
D18*
X0035000Y0512679D03*
X0035000Y0522679D03*
X0035000Y0532679D03*
X0035000Y0542679D03*
X0035000Y0552679D03*
X0232500Y0502679D03*
X0240000Y0507679D03*
X0240000Y0497679D03*
X0307500Y0497679D03*
X0315000Y0502679D03*
X0315000Y0492679D03*
X0332500Y0502679D03*
X0340000Y0507679D03*
X0340000Y0497679D03*
X0340000Y0542679D03*
X0332500Y0547679D03*
X0340000Y0552679D03*
X0455000Y0552679D03*
X0455000Y0562679D03*
X0455000Y0527679D03*
X0455000Y0517679D03*
X0530000Y0522679D03*
X0530000Y0512679D03*
X0530000Y0532679D03*
X0530000Y0542679D03*
X0530000Y0552679D03*
X0727500Y0502679D03*
X0735000Y0507679D03*
X0735000Y0497679D03*
X0802500Y0497679D03*
X0810000Y0502679D03*
X0810000Y0492679D03*
X0827500Y0502679D03*
X0835000Y0507679D03*
X0835000Y0497679D03*
X0835000Y0542679D03*
X0827500Y0547679D03*
X0835000Y0552679D03*
X0950000Y0552679D03*
X0950000Y0562679D03*
X0950000Y0527679D03*
X0950000Y0517679D03*
X0950000Y0262679D03*
X0950000Y0252679D03*
X0950000Y0227679D03*
X0950000Y0217679D03*
X0835000Y0207679D03*
X0827500Y0202679D03*
X0835000Y0197679D03*
X0810000Y0202679D03*
X0802500Y0197679D03*
X0810000Y0192679D03*
X0735000Y0197679D03*
X0727500Y0202679D03*
X0735000Y0207679D03*
X0827500Y0247679D03*
X0835000Y0252679D03*
X0835000Y0242679D03*
X0530000Y0242679D03*
X0530000Y0252679D03*
X0530000Y0232679D03*
X0530000Y0222679D03*
X0530000Y0212679D03*
X0455000Y0217679D03*
X0455000Y0227679D03*
X0455000Y0252679D03*
X0455000Y0262679D03*
X0340000Y0252679D03*
X0332500Y0247679D03*
X0340000Y0242679D03*
X0340000Y0207679D03*
X0332500Y0202679D03*
X0340000Y0197679D03*
X0315000Y0202679D03*
X0307500Y0197679D03*
X0315000Y0192679D03*
X0240000Y0197679D03*
X0232500Y0202679D03*
X0240000Y0207679D03*
X0035000Y0212679D03*
X0035000Y0222679D03*
X0035000Y0232679D03*
X0035000Y0242679D03*
X0035000Y0252679D03*
X0035000Y0127679D03*
X0035000Y0117679D03*
X0035000Y0417679D03*
X0035000Y0427679D03*
X0530000Y0427679D03*
X0530000Y0417679D03*
X0530000Y0127679D03*
X0530000Y0117679D03*
D19*
X0412600Y0172679D02*
X0407400Y0172679D01*
X0407400Y0182679D02*
X0412600Y0182679D01*
X0412600Y0192679D02*
X0407400Y0192679D01*
X0407400Y0472679D02*
X0412600Y0472679D01*
X0412600Y0482679D02*
X0407400Y0482679D01*
X0407400Y0492679D02*
X0412600Y0492679D01*
X0902400Y0492679D02*
X0907600Y0492679D01*
X0907600Y0482679D02*
X0902400Y0482679D01*
X0902400Y0472679D02*
X0907600Y0472679D01*
X0907600Y0192679D02*
X0902400Y0192679D01*
X0902400Y0182679D02*
X0907600Y0182679D01*
X0907600Y0172679D02*
X0902400Y0172679D01*
D20*
X0762800Y0036579D03*
X0737200Y0036579D03*
X0737200Y0018779D03*
X0762800Y0018779D03*
X0762800Y0318779D03*
X0737200Y0318779D03*
X0737200Y0336579D03*
X0762800Y0336579D03*
X0267800Y0336579D03*
X0242200Y0336579D03*
X0242200Y0318779D03*
X0267800Y0318779D03*
X0267800Y0036579D03*
X0242200Y0036579D03*
X0242200Y0018779D03*
X0267800Y0018779D03*
D21*
X0122575Y0127679D02*
X0117425Y0127679D01*
X0117425Y0137679D02*
X0122575Y0137679D01*
X0122575Y0147679D02*
X0117425Y0147679D01*
X0117425Y0157679D02*
X0122575Y0157679D01*
X0122575Y0167679D02*
X0117425Y0167679D01*
X0117425Y0177679D02*
X0122575Y0177679D01*
X0122575Y0187679D02*
X0117425Y0187679D01*
X0117425Y0197679D02*
X0122575Y0197679D01*
X0122575Y0207679D02*
X0117425Y0207679D01*
X0117425Y0217679D02*
X0122575Y0217679D01*
X0122575Y0227679D02*
X0117425Y0227679D01*
X0117425Y0237679D02*
X0122575Y0237679D01*
X0122575Y0247679D02*
X0117425Y0247679D01*
X0117425Y0257679D02*
X0122575Y0257679D01*
X0122575Y0267679D02*
X0117425Y0267679D01*
X0062575Y0267679D02*
X0057425Y0267679D01*
X0057425Y0257679D02*
X0062575Y0257679D01*
X0062575Y0247679D02*
X0057425Y0247679D01*
X0057425Y0237679D02*
X0062575Y0237679D01*
X0062575Y0227679D02*
X0057425Y0227679D01*
X0057425Y0217679D02*
X0062575Y0217679D01*
X0062575Y0207679D02*
X0057425Y0207679D01*
X0057425Y0197679D02*
X0062575Y0197679D01*
X0062575Y0187679D02*
X0057425Y0187679D01*
X0057425Y0177679D02*
X0062575Y0177679D01*
X0062575Y0167679D02*
X0057425Y0167679D01*
X0057425Y0157679D02*
X0062575Y0157679D01*
X0062575Y0147679D02*
X0057425Y0147679D01*
X0057425Y0137679D02*
X0062575Y0137679D01*
X0062575Y0127679D02*
X0057425Y0127679D01*
X0057425Y0427679D02*
X0062575Y0427679D01*
X0062575Y0437679D02*
X0057425Y0437679D01*
X0057425Y0447679D02*
X0062575Y0447679D01*
X0062575Y0457679D02*
X0057425Y0457679D01*
X0057425Y0467679D02*
X0062575Y0467679D01*
X0062575Y0477679D02*
X0057425Y0477679D01*
X0057425Y0487679D02*
X0062575Y0487679D01*
X0062575Y0497679D02*
X0057425Y0497679D01*
X0057425Y0507679D02*
X0062575Y0507679D01*
X0062575Y0517679D02*
X0057425Y0517679D01*
X0057425Y0527679D02*
X0062575Y0527679D01*
X0062575Y0537679D02*
X0057425Y0537679D01*
X0057425Y0547679D02*
X0062575Y0547679D01*
X0062575Y0557679D02*
X0057425Y0557679D01*
X0057425Y0567679D02*
X0062575Y0567679D01*
X0117425Y0567679D02*
X0122575Y0567679D01*
X0122575Y0557679D02*
X0117425Y0557679D01*
X0117425Y0547679D02*
X0122575Y0547679D01*
X0122575Y0537679D02*
X0117425Y0537679D01*
X0117425Y0527679D02*
X0122575Y0527679D01*
X0122575Y0517679D02*
X0117425Y0517679D01*
X0117425Y0507679D02*
X0122575Y0507679D01*
X0122575Y0497679D02*
X0117425Y0497679D01*
X0117425Y0487679D02*
X0122575Y0487679D01*
X0122575Y0477679D02*
X0117425Y0477679D01*
X0117425Y0467679D02*
X0122575Y0467679D01*
X0122575Y0457679D02*
X0117425Y0457679D01*
X0117425Y0447679D02*
X0122575Y0447679D01*
X0122575Y0437679D02*
X0117425Y0437679D01*
X0117425Y0427679D02*
X0122575Y0427679D01*
X0552425Y0427679D02*
X0557575Y0427679D01*
X0557575Y0437679D02*
X0552425Y0437679D01*
X0552425Y0447679D02*
X0557575Y0447679D01*
X0557575Y0457679D02*
X0552425Y0457679D01*
X0552425Y0467679D02*
X0557575Y0467679D01*
X0557575Y0477679D02*
X0552425Y0477679D01*
X0552425Y0487679D02*
X0557575Y0487679D01*
X0557575Y0497679D02*
X0552425Y0497679D01*
X0552425Y0507679D02*
X0557575Y0507679D01*
X0557575Y0517679D02*
X0552425Y0517679D01*
X0552425Y0527679D02*
X0557575Y0527679D01*
X0557575Y0537679D02*
X0552425Y0537679D01*
X0552425Y0547679D02*
X0557575Y0547679D01*
X0557575Y0557679D02*
X0552425Y0557679D01*
X0552425Y0567679D02*
X0557575Y0567679D01*
X0612425Y0567679D02*
X0617575Y0567679D01*
X0617575Y0557679D02*
X0612425Y0557679D01*
X0612425Y0547679D02*
X0617575Y0547679D01*
X0617575Y0537679D02*
X0612425Y0537679D01*
X0612425Y0527679D02*
X0617575Y0527679D01*
X0617575Y0517679D02*
X0612425Y0517679D01*
X0612425Y0507679D02*
X0617575Y0507679D01*
X0617575Y0497679D02*
X0612425Y0497679D01*
X0612425Y0487679D02*
X0617575Y0487679D01*
X0617575Y0477679D02*
X0612425Y0477679D01*
X0612425Y0467679D02*
X0617575Y0467679D01*
X0617575Y0457679D02*
X0612425Y0457679D01*
X0612425Y0447679D02*
X0617575Y0447679D01*
X0617575Y0437679D02*
X0612425Y0437679D01*
X0612425Y0427679D02*
X0617575Y0427679D01*
X0617575Y0267679D02*
X0612425Y0267679D01*
X0612425Y0257679D02*
X0617575Y0257679D01*
X0617575Y0247679D02*
X0612425Y0247679D01*
X0612425Y0237679D02*
X0617575Y0237679D01*
X0617575Y0227679D02*
X0612425Y0227679D01*
X0612425Y0217679D02*
X0617575Y0217679D01*
X0617575Y0207679D02*
X0612425Y0207679D01*
X0612425Y0197679D02*
X0617575Y0197679D01*
X0617575Y0187679D02*
X0612425Y0187679D01*
X0612425Y0177679D02*
X0617575Y0177679D01*
X0617575Y0167679D02*
X0612425Y0167679D01*
X0612425Y0157679D02*
X0617575Y0157679D01*
X0617575Y0147679D02*
X0612425Y0147679D01*
X0612425Y0137679D02*
X0617575Y0137679D01*
X0617575Y0127679D02*
X0612425Y0127679D01*
X0557575Y0127679D02*
X0552425Y0127679D01*
X0552425Y0137679D02*
X0557575Y0137679D01*
X0557575Y0147679D02*
X0552425Y0147679D01*
X0552425Y0157679D02*
X0557575Y0157679D01*
X0557575Y0167679D02*
X0552425Y0167679D01*
X0552425Y0177679D02*
X0557575Y0177679D01*
X0557575Y0187679D02*
X0552425Y0187679D01*
X0552425Y0197679D02*
X0557575Y0197679D01*
X0557575Y0207679D02*
X0552425Y0207679D01*
X0552425Y0217679D02*
X0557575Y0217679D01*
X0557575Y0227679D02*
X0552425Y0227679D01*
X0552425Y0237679D02*
X0557575Y0237679D01*
X0557575Y0247679D02*
X0552425Y0247679D01*
X0552425Y0257679D02*
X0557575Y0257679D01*
X0557575Y0267679D02*
X0552425Y0267679D01*
D22*
X0575000Y0132679D03*
X0585000Y0132679D03*
X0595000Y0132679D03*
X0595000Y0122679D03*
X0585000Y0122679D03*
X0575000Y0122679D03*
X0100000Y0122679D03*
X0100000Y0132679D03*
X0090000Y0132679D03*
X0080000Y0132679D03*
X0080000Y0122679D03*
X0090000Y0122679D03*
X0090000Y0422679D03*
X0090000Y0432679D03*
X0080000Y0432679D03*
X0080000Y0422679D03*
X0100000Y0422679D03*
X0100000Y0432679D03*
X0575000Y0432679D03*
X0585000Y0432679D03*
X0595000Y0432679D03*
X0595000Y0422679D03*
X0585000Y0422679D03*
X0575000Y0422679D03*
D23*
X0575000Y0287679D03*
X0565000Y0287679D03*
X0570000Y0280179D03*
X0570000Y0580179D03*
X0565000Y0587679D03*
X0575000Y0587679D03*
X0080000Y0587679D03*
X0070000Y0587679D03*
X0075000Y0580179D03*
X0070000Y0287679D03*
X0080000Y0287679D03*
X0075000Y0280179D03*
D24*
X0035000Y0202679D03*
X0035000Y0502679D03*
X0530000Y0502679D03*
X0530000Y0202679D03*
D25*
X0490000Y0215592D03*
X0490000Y0229371D03*
X0490000Y0250592D03*
X0490000Y0264371D03*
X0490000Y0515592D03*
X0490000Y0529371D03*
X0490000Y0550592D03*
X0490000Y0564371D03*
X0985000Y0564371D03*
X0985000Y0550592D03*
X0985000Y0529371D03*
X0985000Y0515592D03*
X0985000Y0264371D03*
X0985000Y0250592D03*
X0985000Y0229371D03*
X0985000Y0215592D03*
D26*
X0675984Y0315553D03*
X0675984Y0380513D03*
X0557874Y0380513D03*
X0557874Y0315553D03*
X0557874Y0080513D03*
X0557874Y0015553D03*
X0675984Y0015553D03*
X0675984Y0080513D03*
X0180984Y0080513D03*
X0180984Y0015553D03*
X0062874Y0015553D03*
X0062874Y0080513D03*
X0062874Y0315553D03*
X0062874Y0380513D03*
X0180984Y0380513D03*
X0180984Y0315553D03*
D27*
X0146930Y0316553D03*
X0136930Y0316553D03*
X0126930Y0316553D03*
X0116930Y0316553D03*
X0106930Y0316553D03*
X0096930Y0316553D03*
X0096930Y0016553D03*
X0106930Y0016553D03*
X0116930Y0016553D03*
X0126930Y0016553D03*
X0136930Y0016553D03*
X0146930Y0016553D03*
X0591930Y0016553D03*
X0601930Y0016553D03*
X0611930Y0016553D03*
X0621930Y0016553D03*
X0631930Y0016553D03*
X0641930Y0016553D03*
X0641930Y0316553D03*
X0631930Y0316553D03*
X0621930Y0316553D03*
X0611930Y0316553D03*
X0601930Y0316553D03*
X0591930Y0316553D03*
D28*
X0715289Y0332968D03*
X0715289Y0032968D03*
X0220289Y0032968D03*
X0220289Y0332968D03*
D29*
X0209711Y0322389D03*
X0209711Y0022389D03*
X0704711Y0022389D03*
X0704711Y0322389D03*
D30*
X0558543Y0367679D03*
X0558543Y0067679D03*
X0058543Y0067679D03*
X0058543Y0367679D03*
D31*
X0033937Y0367679D03*
X0047323Y0386576D03*
X0047323Y0086576D03*
X0033937Y0067679D03*
X0533937Y0067679D03*
X0547323Y0086576D03*
X0533937Y0367679D03*
X0547323Y0386576D03*
D32*
X0560000Y0392679D03*
X0565000Y0387679D03*
X0565000Y0382679D03*
X0575000Y0382679D03*
X0575000Y0387679D03*
X0575000Y0392679D03*
X0590000Y0402679D03*
X0600000Y0402679D03*
X0605000Y0402679D03*
X0610000Y0402679D03*
X0600000Y0377679D03*
X0605000Y0372679D03*
X0610000Y0372679D03*
X0590000Y0377679D03*
X0640000Y0372679D03*
X0670000Y0372679D03*
X0685000Y0322679D03*
X0709500Y0310679D03*
X0690000Y0242679D03*
X0690000Y0237679D03*
X0690000Y0217679D03*
X0695000Y0217679D03*
X0700000Y0207679D03*
X0715000Y0207679D03*
X0720000Y0177679D03*
X0715000Y0172679D03*
X0700000Y0172679D03*
X0685000Y0137679D03*
X0705000Y0122679D03*
X0720000Y0127679D03*
X0725000Y0127679D03*
X0670000Y0072679D03*
X0640000Y0072679D03*
X0610000Y0072679D03*
X0605000Y0072679D03*
X0600000Y0077679D03*
X0590000Y0077679D03*
X0575000Y0082679D03*
X0575000Y0087679D03*
X0575000Y0092679D03*
X0565000Y0087679D03*
X0565000Y0082679D03*
X0560000Y0092679D03*
X0590000Y0102679D03*
X0600000Y0102679D03*
X0605000Y0102679D03*
X0610000Y0102679D03*
X0625000Y0132679D03*
X0575000Y0142679D03*
X0535000Y0157679D03*
X0585000Y0172679D03*
X0590000Y0187679D03*
X0600000Y0197679D03*
X0595000Y0212679D03*
X0600000Y0217679D03*
X0590000Y0232679D03*
X0575000Y0202679D03*
X0570000Y0197679D03*
X0582000Y0271179D03*
X0590000Y0272679D03*
X0375000Y0222679D03*
X0375000Y0192679D03*
X0345000Y0157679D03*
X0340000Y0142679D03*
X0335000Y0142679D03*
X0335000Y0117679D03*
X0340000Y0117679D03*
X0230000Y0127679D03*
X0225000Y0127679D03*
X0210000Y0122679D03*
X0190000Y0137679D03*
X0205000Y0172679D03*
X0220000Y0172679D03*
X0225000Y0177679D03*
X0220000Y0207679D03*
X0205000Y0207679D03*
X0200000Y0217679D03*
X0195000Y0217679D03*
X0195000Y0237679D03*
X0195000Y0242679D03*
X0105000Y0217679D03*
X0100000Y0212679D03*
X0080000Y0202679D03*
X0075000Y0197679D03*
X0095000Y0187679D03*
X0105000Y0197679D03*
X0090000Y0172679D03*
X0080000Y0142679D03*
X0040000Y0157679D03*
X0095000Y0102679D03*
X0105000Y0102679D03*
X0110000Y0102679D03*
X0115000Y0102679D03*
X0105000Y0077679D03*
X0110000Y0072679D03*
X0115000Y0072679D03*
X0095000Y0077679D03*
X0080000Y0082679D03*
X0080000Y0087679D03*
X0080000Y0092679D03*
X0070000Y0087679D03*
X0070000Y0082679D03*
X0065000Y0092679D03*
X0130000Y0132679D03*
X0145000Y0072679D03*
X0175000Y0072679D03*
X0190000Y0022679D03*
X0214500Y0010679D03*
X0095000Y0232679D03*
X0087000Y0271179D03*
X0095000Y0272679D03*
X0190000Y0322679D03*
X0214500Y0310679D03*
X0175000Y0372679D03*
X0145000Y0372679D03*
X0115000Y0372679D03*
X0110000Y0372679D03*
X0105000Y0377679D03*
X0095000Y0377679D03*
X0080000Y0382679D03*
X0080000Y0387679D03*
X0080000Y0392679D03*
X0070000Y0387679D03*
X0070000Y0382679D03*
X0065000Y0392679D03*
X0095000Y0402679D03*
X0105000Y0402679D03*
X0110000Y0402679D03*
X0115000Y0402679D03*
X0130000Y0432679D03*
X0080000Y0442679D03*
X0040000Y0457679D03*
X0090000Y0472679D03*
X0095000Y0487679D03*
X0105000Y0497679D03*
X0100000Y0512679D03*
X0105000Y0517679D03*
X0095000Y0532679D03*
X0080000Y0502679D03*
X0075000Y0497679D03*
X0195000Y0517679D03*
X0200000Y0517679D03*
X0205000Y0507679D03*
X0220000Y0507679D03*
X0225000Y0477679D03*
X0220000Y0472679D03*
X0205000Y0472679D03*
X0190000Y0437679D03*
X0210000Y0422679D03*
X0225000Y0427679D03*
X0230000Y0427679D03*
X0335000Y0417679D03*
X0340000Y0417679D03*
X0340000Y0442679D03*
X0335000Y0442679D03*
X0345000Y0457679D03*
X0375000Y0492679D03*
X0375000Y0522679D03*
X0535000Y0457679D03*
X0575000Y0442679D03*
X0585000Y0472679D03*
X0590000Y0487679D03*
X0600000Y0497679D03*
X0595000Y0512679D03*
X0600000Y0517679D03*
X0590000Y0532679D03*
X0575000Y0502679D03*
X0570000Y0497679D03*
X0625000Y0432679D03*
X0685000Y0437679D03*
X0705000Y0422679D03*
X0720000Y0427679D03*
X0725000Y0427679D03*
X0715000Y0472679D03*
X0720000Y0477679D03*
X0700000Y0472679D03*
X0700000Y0507679D03*
X0695000Y0517679D03*
X0690000Y0517679D03*
X0690000Y0537679D03*
X0690000Y0542679D03*
X0715000Y0507679D03*
X0830000Y0442679D03*
X0835000Y0442679D03*
X0840000Y0457679D03*
X0835000Y0417679D03*
X0830000Y0417679D03*
X0870000Y0492679D03*
X0870000Y0522679D03*
X0590000Y0572679D03*
X0582000Y0571179D03*
X0195000Y0542679D03*
X0195000Y0537679D03*
X0095000Y0572679D03*
X0087000Y0571179D03*
X0830000Y0142679D03*
X0835000Y0142679D03*
X0840000Y0157679D03*
X0835000Y0117679D03*
X0830000Y0117679D03*
X0870000Y0192679D03*
X0870000Y0222679D03*
X0685000Y0022679D03*
X0709500Y0010679D03*
M02*
