%
M48
M72
T01C0.02000
T02C0.03200
T03C0.04000
%
T01
X91600Y17167
X96600Y47167
X116600Y47167
X161600Y77167
X61600Y67167
X51600Y67167
T02
X21600Y22167
X31600Y22167
X41600Y22167
X51600Y22167
X61600Y22167
X71600Y22167
X81600Y22167
X106600Y22167
X116600Y22167
X131600Y17167
X141600Y17167
X151600Y17167
X116600Y37167
X106600Y37167
X126600Y42167
X151600Y57167
X144100Y62167
X151600Y67167
X171600Y67167
X171600Y57167
X166600Y42167
X131600Y62167
X151600Y92167
X151600Y102167
X131600Y102167
X106600Y102167
X106600Y92167
X81600Y87167
X81600Y77167
X81600Y52167
X71600Y52167
X61600Y52167
X51600Y52167
X41600Y52167
X31600Y52167
X21600Y52167
X41600Y77167
X41600Y87167
X21600Y87167
X21600Y79167
X71600Y102167
X81600Y102167
T03
X56600Y102167
X46600Y102167
X31600Y102167
X21600Y102167
X106600Y62167
X116600Y62167
M30
